<?xml version="1.0" standalone="no"?>
<!DOCTYPE svg PUBLIC "-//W3C//DTD SVG 20010904//EN"
 "http://www.w3.org/TR/2001/REC-SVG-20010904/DTD/svg10.dtd">
<svg version="1.0" xmlns="http://www.w3.org/2000/svg"
 width="4500.000000pt" height="2109.000000pt" viewBox="0 0 4500.000000 2109.000000"
 preserveAspectRatio="xMidYMid meet">

<g transform="translate(0.000000,2109.000000) scale(0.100000,-0.100000)"
fill="#000000" stroke="none">
<path d="M0 10545 l0 -10545 422 0 422 0 77 75 c42 41 82 75 89 75 7 0 47 -34
89 -75 l77 -75 532 0 532 0 -1 173 0 172 -297 263 c-393 347 -372 327 -372
356 0 32 39 60 67 49 10 -5 175 -147 366 -317 l347 -310 0 -193 0 -193 9332 0
9333 0 -158 158 c-160 160 -178 187 -145 220 34 34 59 16 258 -183 l195 -195
135 0 135 0 508 508 507 507 0 506 c0 477 1 507 18 522 24 22 45 21 65 -1 15
-17 17 -68 17 -523 l0 -504 508 -508 507 -507 135 0 135 0 195 195 c199 199
224 217 258 183 33 -33 15 -60 -145 -220 l-158 -158 9333 0 9332 0 0 184 0
185 355 315 c195 174 361 316 368 316 7 0 23 -7 35 -16 51 -35 37 -51 -313
-363 l-330 -295 -3 -163 -2 -163 536 0 537 0 68 65 c37 36 75 65 84 65 9 0 47
-29 84 -65 l68 -65 431 0 432 0 0 10545 0 10545 -22500 0 -22500 0 0 -10545z
m18962 9948 c306 -305 388 -393 388 -413 0 -36 -763 -800 -800 -800 -19 0
-110 86 -412 388 -246 246 -388 394 -388 407 0 27 778 805 805 805 12 0 157
-138 407 -387z m2998 212 l175 -175 170 170 c94 94 181 173 194 177 20 5 48
-19 202 -173 l179 -179 178 178 c109 108 186 177 198 177 23 0 804 -777 804
-800 0 -23 -781 -800 -805 -800 -12 0 -85 65 -195 175 l-175 175 -175 -175
c-133 -133 -181 -175 -200 -175 -19 0 -67 42 -200 175 l-175 175 -175 -175
c-133 -133 -181 -175 -200 -175 -19 0 -109 84 -412 388 -246 246 -388 394
-388 407 0 27 778 805 804 805 12 0 88 -68 196 -175z m4917 -218 c216 -216
393 -399 393 -407 0 -23 -781 -800 -805 -800 -24 0 -805 777 -805 800 0 23
782 800 805 800 13 0 161 -141 412 -393z m-23943 297 c20 -19 23 -153 4 -172
-20 -20 -65 -14 -82 10 -24 34 -21 133 4 158 24 24 53 26 74 4z m691 2 c14
-10 20 -29 22 -72 5 -72 -11 -108 -50 -112 -47 -6 -57 12 -57 99 0 64 3 80 18
88 24 14 45 13 67 -3z m693 -4 c25 -25 29 -125 7 -158 -17 -26 -62 -33 -83
-12 -19 19 -16 153 4 172 21 21 50 20 72 -2z m699 -12 c18 -35 16 -121 -3
-148 -18 -26 -56 -29 -78 -6 -23 22 -22 141 1 166 23 26 64 20 80 -12z m685
13 c25 -22 26 -138 1 -165 -20 -22 -51 -23 -75 -1 -25 22 -26 138 -1 165 20
22 51 23 75 1z m690 0 c25 -22 26 -138 1 -165 -20 -22 -51 -23 -75 -1 -25 22
-26 138 -1 165 20 22 51 23 75 1z m32290 0 c25 -22 26 -138 1 -165 -20 -22
-51 -23 -75 -1 -25 22 -26 138 -1 165 20 22 51 23 75 1z m690 0 c25 -22 26
-138 1 -165 -20 -22 -51 -23 -75 -1 -25 22 -26 138 -1 165 20 22 51 23 75 1z
m690 0 c24 -22 26 -143 2 -167 -23 -23 -61 -20 -78 7 -19 28 -17 137 3 161 17
21 49 20 73 -1z m692 1 c20 -19 23 -153 4 -172 -21 -21 -66 -14 -83 12 -20 30
-19 121 2 154 16 26 54 29 77 6z m692 2 c16 -12 19 -25 17 -86 -1 -39 -7 -78
-14 -86 -16 -19 -63 -18 -80 3 -21 24 -14 154 8 171 22 16 45 15 69 -2z m698
-8 c10 -14 16 -44 16 -78 0 -67 -19 -100 -59 -100 -42 0 -51 17 -51 96 0 53 4
77 16 88 22 23 60 20 78 -6z m-41112 -205 c16 -15 18 -36 18 -247 l0 -231 184
-184 184 -184 323 8 c217 4 333 3 351 -4 39 -15 53 -46 34 -76 l-15 -23 -340
-7 -341 -8 0 -366 c0 -316 -2 -370 -16 -389 -16 -24 -44 -28 -75 -12 -18 10
-19 26 -19 418 l0 407 -172 172 -173 173 -236 0 c-208 0 -238 2 -250 17 -11
13 -14 70 -14 270 0 241 1 255 19 269 16 11 70 14 270 14 218 0 252 -2 268
-17z m43488 -13 c19 -19 20 -33 20 -274 0 -252 0 -255 -22 -270 -19 -13 -61
-16 -253 -16 l-230 0 -178 -178 -177 -177 0 -351 c0 -259 -3 -353 -12 -362
-20 -20 -65 -14 -82 10 -14 19 -16 70 -16 355 l0 333 -379 0 c-413 0 -406 -1
-399 57 6 51 19 53 443 53 l390 0 172 173 173 172 2 235 3 234 25 13 c18 9 91
13 263 13 224 0 238 -1 257 -20z m-41588 -427 c17 -15 18 -44 18 -500 l0 -483
295 0 295 0 0 484 c0 427 2 486 16 500 16 17 42 20 60 8 32 -21 34 -52 34
-521 l0 -471 290 0 290 0 0 482 c0 434 2 483 17 500 21 24 48 23 73 -2 19 -19
20 -33 20 -500 l0 -480 290 0 290 0 0 482 c0 434 2 483 17 500 21 24 48 23 73
-2 19 -19 20 -33 20 -500 l0 -480 290 0 290 0 0 478 c0 519 0 522 55 522 55 0
55 -3 55 -522 l0 -478 290 0 290 0 1 473 c1 259 1 476 0 481 -3 16 32 46 55
46 54 0 54 -4 54 -522 l0 -478 450 0 c437 0 451 -1 470 -20 24 -24 25 -47 3
-72 -16 -17 -112 -18 -2670 -18 l-2653 0 0 -2653 c0 -2623 0 -2654 -20 -2672
-26 -23 -68 -13 -80 21 -6 15 -10 207 -10 465 l0 439 -480 0 c-467 0 -481 1
-500 20 -24 24 -25 38 -4 68 l15 22 485 0 484 0 0 290 0 290 -478 0 c-367 0
-482 3 -495 13 -25 17 -30 57 -10 79 15 17 46 18 500 18 l483 0 0 290 0 290
-480 0 c-467 0 -481 1 -500 20 -24 24 -25 47 -3 72 15 17 44 18 500 18 l483 0
0 290 0 290 -474 0 c-464 0 -474 0 -500 21 -30 24 -33 45 -9 71 15 17 44 18
500 18 l483 0 0 295 0 295 -483 0 c-468 0 -484 1 -502 20 -23 25 -13 63 20 78
19 9 158 12 495 12 l470 0 0 290 0 290 -483 0 c-461 0 -485 1 -501 19 -21 23
-13 67 14 81 12 6 205 10 494 10 l476 0 0 445 0 446 25 24 24 25 446 0 445 0
0 480 c0 467 1 481 20 500 24 24 47 25 72 3z m35752 -2 c9 -10 16 -22 15 -27
-1 -5 -1 -222 0 -481 l1 -473 290 0 290 0 0 478 c0 519 0 522 55 522 55 0 55
-3 55 -522 l0 -478 290 0 290 0 0 480 c0 467 1 481 20 500 24 24 47 25 72 3
17 -15 18 -44 18 -500 l0 -483 290 0 290 0 0 480 c0 467 1 481 20 500 24 24
47 25 72 3 17 -15 18 -44 18 -500 l0 -483 290 0 290 0 0 471 c0 469 2 500 34
521 18 12 44 9 60 -8 14 -14 16 -73 16 -500 l0 -484 295 0 295 0 0 482 c0 434
2 483 17 500 21 24 48 23 73 -2 19 -19 20 -33 20 -500 l0 -480 445 0 446 0 24
-25 25 -24 0 -446 0 -445 480 0 c467 0 481 -1 500 -20 24 -24 25 -47 3 -72
-15 -17 -44 -18 -500 -18 l-483 0 0 -290 0 -290 469 0 c264 0 480 -4 494 -9
33 -13 44 -57 21 -82 -16 -18 -40 -19 -501 -19 l-483 0 0 -295 0 -295 482 0
c434 0 483 -2 500 -17 25 -23 22 -48 -8 -72 -26 -21 -36 -21 -500 -21 l-474 0
0 -290 0 -290 483 0 c461 0 485 -1 501 -19 21 -23 13 -67 -14 -81 -12 -6 -205
-10 -494 -10 l-476 0 0 -290 0 -290 482 0 c434 0 483 -2 500 -17 24 -21 23
-48 -2 -73 -19 -19 -33 -20 -500 -20 l-480 0 0 -290 0 -290 484 0 485 0 15
-22 c21 -30 20 -44 -4 -68 -19 -19 -33 -20 -500 -20 l-480 0 0 -439 c0 -258
-4 -450 -10 -465 -12 -34 -54 -44 -80 -21 -20 18 -20 49 -20 2672 l0 2653
-2654 0 -2655 0 -15 22 c-20 28 -20 39 -2 63 17 24 -4 23 509 24 l417 1 0 478
c0 416 2 480 16 500 19 27 55 29 78 3z m-21924 -21 c24 -24 25 -38 4 -68 l-15
-22 -4736 0 c-4393 0 -4738 1 -4755 17 -25 22 -23 59 4 77 20 14 487 16 4750
16 4715 0 4728 0 4748 -20z m3724 4 c23 -22 20 -60 -6 -78 -19 -14 -66 -16
-310 -16 -157 0 -298 4 -312 10 -38 14 -51 46 -31 76 l15 24 315 0 c272 0 316
-2 329 -16z m4704 4 c20 -20 14 -65 -10 -82 -19 -14 -67 -16 -318 -16 -251 0
-299 2 -318 16 -24 17 -30 62 -10 82 9 9 96 12 328 12 232 0 319 -3 328 -12z
m12550 -4 c26 -18 28 -50 5 -76 -16 -17 -177 -18 -4754 -18 l-4738 0 -15 22
c-21 30 -20 44 4 68 20 20 33 20 4748 20 4263 0 4730 -2 4750 -16z m-17268
-931 l295 -332 1745 0 1745 0 263 297 c144 163 278 314 296 335 42 44 78 49
101 13 14 -21 14 -28 3 -49 -7 -13 -150 -177 -317 -365 l-304 -342 -1788 0
-1788 0 -315 355 c-174 195 -316 361 -316 368 0 7 7 23 16 35 35 51 50 38 364
-315z m-17590 -443 c24 -24 25 -47 3 -72 -15 -16 -36 -18 -250 -18 l-233 0 0
-259 c0 -284 -2 -296 -59 -289 -47 6 -51 29 -51 336 0 269 1 283 20 302 19 19
33 20 285 20 252 0 266 -1 285 -20z m4058 4 c26 -18 28 -50 5 -76 -15 -17 -39
-18 -339 -18 -280 0 -325 2 -338 16 -21 20 -20 53 1 76 15 17 39 18 332 18
270 0 320 -2 339 -16z m31742 -4 c24 -24 25 -47 3 -72 -15 -17 -38 -18 -311
-18 -261 0 -298 2 -314 17 -25 22 -23 59 4 77 19 14 66 16 310 16 275 0 289
-1 308 -20z m4010 0 c19 -19 20 -33 20 -285 0 -252 -1 -266 -20 -285 -24 -24
-47 -25 -72 -3 -16 15 -18 36 -18 250 l0 233 -259 0 c-223 0 -262 2 -275 16
-21 20 -20 53 1 76 15 17 38 18 310 18 280 0 294 -1 313 -20z m-42262 -546
c24 -17 30 -62 10 -82 -19 -19 -147 -16 -170 5 -24 21 -23 48 2 73 25 25 124
28 158 4z m44302 -4 c24 -24 25 -47 3 -72 -13 -14 -31 -18 -88 -18 -78 0 -95
9 -95 51 0 40 33 59 102 59 45 0 63 -5 78 -20z m-44302 -686 c24 -17 30 -62
10 -82 -19 -19 -147 -16 -170 5 -24 22 -23 48 4 73 27 25 122 28 156 4z
m44282 7 c36 -10 49 -54 25 -81 -15 -16 -30 -20 -90 -20 -42 0 -76 5 -83 12
-20 20 -14 65 10 82 23 16 92 20 138 7z m-44272 -703 c21 -21 14 -66 -13 -84
-35 -23 -142 -16 -161 11 -18 25 -18 50 2 69 19 20 153 23 172 4z m44296 -4
c20 -19 20 -44 2 -69 -19 -27 -126 -34 -161 -11 -27 18 -34 63 -13 84 19 19
153 16 172 -4z m-31403 -534 c133 -211 218 -355 219 -370 0 -34 -17 -50 -52
-50 -32 0 -30 -2 -288 407 -74 117 -135 212 -136 210 -1 -1 -84 -132 -184
-292 -100 -159 -189 -298 -198 -307 -17 -21 -62 -24 -80 -6 -29 29 -12 63 163
333 17 28 83 131 145 230 62 99 118 183 124 188 6 4 24 6 39 5 26 -3 50 -36
248 -348z m19481 -491 c480 -381 902 -715 938 -744 36 -29 880 -697 1875
-1484 996 -788 1825 -1448 1842 -1466 26 -28 31 -39 24 -57 -12 -32 -35 -44
-65 -33 -22 9 -398 305 -2461 1940 -1792 1421 -3037 2405 -3041 2405 -4 0
-2695 -2128 -3559 -2815 -1319 -1047 -1934 -1530 -1957 -1533 -33 -5 -66 37
-52 68 5 10 77 72 159 137 133 106 1026 813 2655 2103 289 229 797 631 1130
895 333 263 668 529 745 590 235 187 675 535 773 612 51 40 99 73 107 73 8 0
407 -311 887 -691z m-32374 339 c20 -20 14 -65 -10 -82 -34 -24 -133 -21 -158
4 -24 24 -25 47 -3 72 13 14 31 18 88 18 42 0 76 -5 83 -12z m44294 -5 c21
-19 23 -42 4 -68 -18 -25 -128 -32 -162 -10 -26 17 -33 62 -12 83 19 19 147
16 170 -5z m-44301 -683 c24 -13 25 -57 2 -82 -12 -14 -31 -18 -77 -18 -69 0
-106 18 -106 52 0 42 28 58 97 58 35 0 73 -5 84 -10z m44301 -7 c24 -21 23
-48 -2 -73 -26 -26 -134 -29 -162 -3 -23 21 -24 69 0 82 29 17 143 13 164 -6z
m-12774 -201 c14 -14 26 -63 47 -193 15 -96 32 -179 39 -185 6 -7 91 -24 189
-39 164 -26 180 -30 195 -53 14 -22 14 -27 1 -51 -14 -25 -25 -28 -197 -57
-101 -17 -187 -35 -191 -40 -5 -5 -21 -88 -36 -184 -29 -181 -40 -210 -80
-210 -41 0 -52 29 -81 209 -16 96 -34 179 -40 185 -6 6 -89 24 -185 40 -178
29 -209 40 -209 79 0 44 24 54 212 83 157 25 182 31 189 49 4 11 20 94 35 185
16 102 32 172 42 183 20 22 47 22 70 -1z m-18845 -129 c8 -10 110 -168 226
-352 l211 -334 0 -377 c0 -339 -2 -379 -17 -391 -12 -11 -64 -15 -210 -17
l-193 -3 1 -602 1 -602 209 -199 c174 -165 209 -203 209 -226 0 -15 -6 -33
-14 -39 -33 -27 -65 -6 -235 157 l-171 164 0 -240 0 -239 208 -198 c139 -134
208 -206 210 -223 4 -29 -23 -62 -51 -62 -12 0 -67 45 -136 112 -64 62 -142
137 -173 168 l-58 54 0 -240 0 -240 210 -199 c176 -166 210 -203 210 -227 0
-18 -8 -33 -25 -44 -33 -22 -33 -21 -230 166 l-160 153 -3 -568 -2 -568 210
-332 210 -332 0 -695 c0 -526 -3 -697 -12 -706 -9 -9 -126 -12 -463 -12 -337
0 -454 3 -463 12 -9 9 -12 179 -12 705 l0 693 210 332 210 332 0 569 0 569
-166 -159 c-91 -87 -172 -162 -181 -167 -18 -10 -66 22 -71 49 -4 17 39 62
301 314 l117 113 -2 235 -3 235 -170 -161 c-93 -89 -178 -161 -187 -161 -23 0
-58 35 -58 57 0 17 31 49 268 274 l152 144 -2 237 -3 237 -167 -160 c-180
-171 -202 -183 -234 -134 -11 18 -14 31 -8 44 5 9 100 104 212 210 l202 193 0
604 0 604 -188 0 c-154 0 -192 3 -210 16 l-22 15 0 377 0 377 205 325 c113
179 215 337 226 353 23 31 58 36 82 10z m29584 -323 c9 -18 13 -106 13 -332 0
-295 -1 -309 -20 -328 -24 -24 -47 -25 -72 -3 -17 15 -18 39 -18 343 0 247 3
329 12 338 21 21 71 10 85 -18z m-42263 -36 c21 -20 20 -53 -1 -76 -22 -25
-138 -26 -165 -1 -22 20 -23 51 -1 75 22 24 143 26 167 2z m1948 -1 c17 -15
18 -38 18 -311 0 -261 -2 -298 -17 -314 -21 -24 -48 -23 -73 2 -19 19 -20 33
-20 310 0 277 1 291 20 310 24 24 47 25 72 3z m42350 0 c22 -20 23 -51 1 -75
-22 -25 -138 -26 -165 -1 -22 20 -23 56 -2 77 22 23 141 22 166 -1z m-33914
-309 c21 -15 22 -20 22 -216 0 -173 -2 -204 -17 -220 -21 -23 -55 -23 -77 1
-15 16 -17 43 -16 215 1 181 3 199 21 217 23 23 38 24 67 3z m4580 0 c21 -15
22 -20 22 -216 0 -218 -5 -238 -56 -238 -48 0 -54 28 -54 237 0 180 1 194 20
213 24 24 38 25 68 4z m14611 -378 c7 -8 26 -97 43 -198 16 -100 31 -184 32
-185 1 -1 85 -16 186 -33 101 -17 190 -36 197 -42 21 -17 16 -66 -9 -82 -13
-8 -102 -27 -199 -42 l-176 -27 -31 -186 c-26 -156 -35 -189 -53 -203 -28 -23
-35 -23 -62 5 -19 18 -27 52 -51 203 l-29 181 -177 27 c-98 15 -188 35 -199
43 -24 16 -29 64 -8 81 11 9 65 21 162 35 53 8 220 38 221 40 1 1 15 84 32
185 17 101 36 190 43 198 15 18 63 18 78 0z m3909 1 c6 -6 24 -95 41 -196 17
-102 33 -186 34 -187 1 -2 86 -17 187 -34 101 -17 190 -36 197 -42 21 -17 16
-66 -9 -82 -13 -7 -102 -26 -199 -41 l-176 -28 -31 -186 c-26 -156 -35 -189
-53 -203 -28 -23 -35 -23 -62 5 -19 18 -27 52 -51 202 l-29 180 -184 30 c-166
26 -187 31 -204 53 -23 30 -23 34 -1 61 14 17 50 26 202 51 101 17 186 32 187
34 1 1 5 20 8 42 16 133 50 312 62 332 15 25 63 31 81 9z m-32866 -214 c17
-16 18 -177 18 -4754 l0 -4738 -22 -15 c-30 -21 -44 -20 -68 4 -20 20 -20 33
-20 4748 0 4263 2 4730 16 4750 18 26 50 28 76 5z m42972 -5 c14 -20 16 -487
16 -4750 0 -4715 0 -4728 -20 -4748 -24 -24 -38 -25 -68 -4 l-22 15 0 4736 c0
4393 1 4738 17 4755 22 25 59 23 77 -4z m-11924 -188 c24 -24 25 -47 3 -72
-14 -16 -34 -18 -176 -18 -174 0 -197 7 -197 56 0 45 31 54 197 54 140 0 155
-2 173 -20z m486 -388 c38 -25 32 -85 -10 -96 -11 -3 -310 -6 -663 -6 -630 0
-643 0 -663 20 -24 24 -25 38 -4 68 l15 22 657 0 c361 0 662 -4 668 -8z
m-24049 -214 c11 -13 115 -175 232 -360 266 -422 268 -398 -33 -398 l-186 0 0
-585 0 -585 191 0 c112 0 198 -4 210 -10 24 -13 25 -57 2 -82 -14 -16 -35 -18
-210 -18 l-193 0 0 -260 0 -260 198 0 c213 0 222 -2 222 -51 0 -53 -24 -59
-232 -59 l-188 0 0 -255 0 -255 192 0 c164 0 194 -2 210 -17 24 -22 24 -69 -1
-83 -12 -6 -98 -10 -210 -10 l-191 0 0 -585 0 -585 178 -1 c194 -1 206 -2 227
-19 29 -24 14 -62 -82 -213 -53 -83 -150 -237 -216 -342 -66 -104 -125 -193
-131 -197 -25 -17 -56 -7 -79 25 -71 94 -427 671 -427 692 0 48 28 55 232 55
l188 0 0 585 0 585 -194 0 c-164 0 -197 3 -210 16 -21 20 -20 53 1 76 14 16
35 18 210 18 l193 0 0 255 0 255 -182 0 c-203 0 -231 7 -236 53 -7 55 2 57
219 57 l199 0 0 260 0 260 -192 0 c-207 0 -228 5 -228 56 0 50 16 54 226 54
l194 0 0 585 0 585 -188 0 c-204 0 -232 7 -232 54 0 21 358 602 427 694 29 38
61 42 90 10z m9149 14 c25 -16 444 -692 444 -716 0 -50 -27 -56 -232 -56
l-188 0 0 -585 0 -585 191 0 c112 0 198 -4 210 -10 24 -13 25 -57 2 -82 -14
-16 -35 -18 -210 -18 l-193 0 0 -260 0 -260 198 0 c213 0 222 -2 222 -51 0
-53 -24 -59 -232 -59 l-188 0 0 -255 0 -255 192 0 c210 0 228 -5 228 -60 0
-48 -10 -50 -222 -50 l-198 0 0 -585 0 -585 188 0 c205 0 232 -6 232 -56 0
-24 -418 -700 -444 -717 -6 -4 -22 -6 -36 -5 -28 3 -50 34 -258 365 -70 112
-146 233 -169 270 -45 71 -52 103 -28 123 21 17 33 18 228 19 l177 1 0 585 0
585 -192 0 c-207 0 -228 5 -228 56 0 47 29 54 232 54 l188 0 0 255 0 255 -182
0 c-203 0 -231 7 -236 53 -7 55 2 57 219 57 l199 0 0 260 0 260 -192 0 c-164
0 -194 2 -210 17 -22 20 -23 51 -1 75 14 16 35 18 210 18 l193 0 0 585 0 585
-188 0 c-203 0 -232 7 -232 53 0 20 398 664 438 710 16 18 48 22 68 9z m10373
-191 c5 -9 21 -90 35 -181 15 -91 29 -172 32 -181 3 -13 43 -22 177 -44 204
-33 215 -37 223 -71 12 -49 -14 -61 -211 -95 -99 -17 -182 -35 -185 -40 -3 -5
-19 -86 -34 -181 -29 -179 -40 -208 -81 -208 -40 0 -52 29 -81 208 -16 96 -31
178 -34 182 -3 5 -86 23 -185 39 -150 25 -183 34 -197 52 -21 25 -22 39 -5 62
9 13 61 25 197 48 102 17 187 33 189 35 2 2 17 79 32 171 16 93 31 177 34 189
9 40 76 51 94 15z m7818 -4 c4 -6 22 -93 38 -192 l30 -180 185 -31 c157 -27
186 -35 202 -54 22 -28 22 -33 1 -59 -15 -17 -49 -26 -198 -52 -99 -16 -183
-33 -186 -37 -4 -4 -19 -86 -34 -182 -17 -108 -34 -182 -43 -192 -20 -24 -68
-23 -81 1 -10 17 -60 295 -64 352 l-2 27 -190 31 c-199 32 -215 39 -215 88 0
13 10 29 23 36 12 8 102 27 199 42 174 27 177 28 182 54 3 14 18 98 32 186 14
88 28 163 31 168 17 28 71 24 90 -6z m-2777 -16 c15 -29 12 -49 -10 -71 -20
-20 -33 -20 -1163 -20 -1018 0 -1145 2 -1165 16 -24 17 -30 62 -10 82 9 9 284
12 1175 12 1139 0 1163 0 1173 -19z m494 -393 c9 -12 16 -29 16 -37 0 -9 -206
-221 -457 -473 l-458 -458 1076 0 c823 0 1078 -3 1087 -12 37 -37 26 -49 -470
-545 l-483 -483 483 -483 c513 -514 514 -514 460 -551 -20 -14 -140 -16 -1088
-16 l-1065 0 458 -458 c251 -251 457 -463 457 -471 0 -8 -7 -23 -17 -33 -15
-17 -80 -18 -1666 -18 -1522 0 -1652 1 -1669 17 -10 9 -18 23 -18 32 0 9 206
222 457 473 l458 458 -1068 0 -1068 0 -24 25 c-14 13 -25 30 -25 37 0 7 219
232 487 500 l488 488 -490 490 -490 490 15 28 16 27 1079 3 1080 2 -458 458
c-251 252 -457 464 -457 473 0 8 7 25 16 37 l15 22 1654 0 1654 0 15 -22z
m-22772 -15 c16 -14 18 -33 18 -155 l0 -138 137 0 c113 0 140 -3 155 -17 24
-22 24 -69 -1 -83 -11 -5 -81 -10 -155 -10 l-136 0 0 -138 c0 -140 -6 -168
-40 -172 -27 -4 -38 0 -54 16 -13 12 -16 41 -16 155 l0 139 -137 0 c-113 0
-140 3 -155 17 -22 20 -23 51 -1 75 14 16 33 18 155 18 l138 0 0 137 c0 113 3
140 17 155 20 22 51 23 75 1z m4580 0 c16 -14 18 -33 18 -155 l0 -138 137 0
c113 0 140 -3 155 -17 24 -22 24 -69 -1 -83 -11 -5 -81 -10 -155 -10 l-136 0
0 -136 c0 -74 -5 -144 -10 -155 -13 -24 -57 -25 -82 -2 -16 14 -18 33 -18 155
l0 138 -137 0 c-113 0 -140 3 -155 17 -22 20 -23 51 -1 75 14 16 33 18 155 18
l138 0 0 137 c0 113 3 140 17 155 20 22 51 23 75 1z m-9149 -845 c14 -18 118
-181 232 -362 l207 -328 -19 -27 -20 -26 -172 -3 c-94 -1 -171 -4 -171 -6 0
-3 36 -61 80 -130 108 -171 106 -196 -12 -196 -37 0 -68 -3 -68 -7 0 -8 127
-211 147 -234 18 -22 16 -63 -4 -81 -11 -9 -42 -16 -78 -17 -33 -2 -61 -4 -63
-6 -1 -1 33 -59 78 -129 108 -171 106 -196 -12 -196 -37 0 -68 -3 -68 -7 0 -8
127 -211 147 -234 18 -21 16 -59 -4 -81 -15 -16 -36 -18 -242 -18 -243 0 -271
5 -271 52 0 12 38 81 84 155 l85 133 -69 0 c-73 0 -100 14 -100 50 0 11 36 76
80 145 44 69 80 128 80 130 0 3 -26 5 -58 5 -65 0 -102 19 -102 52 0 12 38 81
84 155 l85 133 -69 0 c-73 0 -100 14 -100 50 0 11 36 76 80 145 44 69 80 128
80 130 0 3 -75 5 -167 5 -180 0 -203 6 -203 55 0 19 398 663 438 708 24 27 58
21 85 -15z m13734 10 c22 -26 426 -663 436 -690 3 -10 -2 -27 -14 -42 -20 -25
-21 -26 -189 -28 l-170 -3 80 -125 c108 -171 107 -200 -12 -200 -37 0 -68 -2
-68 -5 0 -3 36 -62 80 -132 44 -70 80 -136 80 -148 0 -36 -30 -54 -98 -57
l-62 -3 80 -125 c108 -171 107 -200 -12 -200 -37 0 -68 -2 -68 -5 0 -3 36 -62
80 -132 44 -70 80 -136 80 -146 0 -11 -7 -29 -17 -39 -15 -16 -36 -18 -242
-18 -244 0 -272 5 -270 53 0 12 37 81 83 152 l83 130 -66 3 c-68 3 -101 20
-101 52 0 9 36 73 80 143 44 70 80 129 80 132 0 3 -26 5 -58 5 -65 0 -102 19
-102 53 0 12 38 81 84 152 l84 130 -66 3 c-69 3 -102 20 -102 52 0 9 36 73 80
143 44 70 80 129 80 132 0 3 -73 5 -163 5 -183 0 -213 9 -205 59 4 23 398 660
436 704 21 24 55 21 79 -5z m8571 -631 c281 -282 512 -519 512 -527 0 -8 -233
-248 -518 -533 -424 -424 -522 -517 -538 -511 -10 4 -247 234 -526 513 -399
398 -508 511 -508 531 0 36 1004 1040 1040 1040 20 0 134 -109 538 -513z
m7801 -1 c459 -459 512 -516 506 -537 -8 -27 -989 -1016 -1020 -1029 -12 -4
-30 -2 -45 6 -45 23 -1010 997 -1015 1024 -4 22 59 89 508 538 336 336 519
512 532 512 13 0 197 -177 534 -514z m-25247 -223 c217 -217 308 -314 308
-330 0 -23 -34 -53 -59 -53 -8 0 -113 98 -233 217 l-218 217 110 -329 c61
-181 110 -338 110 -347 0 -24 -44 -51 -70 -43 -29 9 -33 20 -131 310 l-87 260
-1 -417 -1 -418 -25 -16 c-30 -20 -63 -10 -76 23 -5 13 -9 201 -10 426 l-1
402 -92 -274 c-99 -295 -111 -316 -161 -293 -13 6 -27 22 -30 34 -4 18 116
399 211 668 3 8 -93 -83 -213 -202 -120 -120 -226 -218 -236 -218 -22 0 -57
35 -57 57 0 25 610 633 635 633 13 0 128 -108 327 -307z m4580 0 c217 -217
308 -314 308 -330 0 -23 -34 -53 -59 -53 -8 0 -113 98 -233 217 l-218 217 110
-329 c61 -181 110 -338 110 -347 0 -28 -46 -53 -74 -40 -20 9 -39 54 -119 294
l-95 283 -1 -422 -1 -423 -25 -16 c-30 -20 -63 -10 -76 23 -5 13 -9 201 -10
426 l-1 402 -92 -274 c-99 -294 -111 -316 -160 -293 -14 6 -27 19 -30 29 -4
11 41 158 104 348 61 180 109 330 107 331 -2 2 -99 -93 -217 -211 -118 -118
-223 -215 -232 -215 -23 0 -58 35 -58 57 0 25 610 633 635 633 13 0 128 -108
327 -307z m9821 25 c10 -7 19 -24 22 -38 4 -21 -15 -45 -127 -157 l-132 -133
132 -133 c204 -206 203 -207 -213 -207 l-300 0 -157 157 c-122 121 -158 164
-158 183 0 20 36 62 158 183 l158 157 300 0 c224 0 304 -3 317 -12z m1229 -5
c35 -32 22 -54 -114 -190 l-133 -133 133 -133 c77 -77 132 -140 132 -151 0
-11 -7 -28 -17 -38 -15 -17 -38 -18 -322 -18 l-306 0 -157 157 c-119 119 -158
164 -158 183 0 18 39 63 158 182 l158 158 304 0 c268 0 306 -2 322 -17z
m11147 -147 c140 -140 163 -167 158 -187 -3 -13 -75 -93 -160 -176 l-153 -153
-303 0 c-189 0 -310 4 -322 10 -11 7 -19 21 -19 38 0 21 28 54 130 157 l130
130 -130 130 c-136 136 -149 158 -113 197 15 17 38 18 317 18 l301 0 164 -164z
m1223 7 c121 -120 158 -163 158 -182 0 -20 -37 -63 -157 -183 l-158 -158 -304
0 c-269 0 -307 2 -323 17 -35 32 -22 54 114 190 l133 133 -133 133 c-205 206
-204 207 212 207 l300 0 158 -157z m-27714 -1835 c329 -329 595 -603 599 -617
5 -20 -30 -59 -268 -297 l-274 -274 273 -273 c170 -170 272 -279 272 -292 0
-12 -105 -124 -280 -300 l-280 -280 280 -280 c179 -179 280 -287 280 -300 0
-13 -207 -227 -592 -612 -469 -469 -598 -593 -618 -593 -20 0 -150 125 -622
597 -329 329 -598 605 -598 613 0 8 126 141 280 295 l280 280 -280 280 c-172
172 -280 288 -280 300 0 12 105 125 272 292 l273 273 -273 273 c-170 170 -272
280 -272 292 0 27 1188 1215 1215 1215 13 0 230 -210 613 -592z m4580 0 c329
-329 595 -603 599 -617 5 -20 -30 -59 -268 -297 l-274 -274 274 -274 c243
-243 272 -276 266 -297 -4 -13 -130 -148 -281 -299 l-274 -275 280 -280 c179
-179 280 -287 280 -300 0 -13 -207 -227 -592 -612 -470 -470 -598 -593 -618
-593 -37 0 -1225 1188 -1216 1216 3 11 130 143 281 294 l275 275 -280 280
c-172 172 -280 288 -280 300 0 12 105 125 272 292 l273 273 -273 273 c-170
170 -272 280 -272 292 0 27 1188 1215 1215 1215 13 0 230 -210 613 -592z
m9945 344 c130 -130 237 -244 237 -251 0 -24 -32 -51 -59 -51 -20 0 -65 39
-203 177 l-178 178 0 -933 0 -932 423 1 422 0 129 140 129 139 575 0 c521 0
577 -2 594 -17 34 -30 21 -55 -97 -182 -63 -68 -115 -130 -115 -139 0 -8 52
-70 115 -137 116 -124 130 -149 99 -179 -14 -14 -81 -16 -594 -16 l-578 0
-132 140 -133 140 -458 0 -458 0 -15 22 c-14 20 -16 130 -16 988 l0 965 -178
-178 c-120 -120 -184 -177 -199 -177 -28 0 -53 25 -53 53 0 29 457 487 485
487 13 0 107 -87 258 -238z m914 106 c74 -73 136 -143 140 -156 7 -28 -21 -62
-51 -62 -12 0 -53 32 -103 82 l-83 83 0 -478 0 -477 214 0 214 0 73 75 72 75
330 0 c293 0 332 -2 349 -17 30 -27 21 -52 -42 -117 -33 -35 -60 -66 -60 -71
0 -5 27 -39 60 -76 63 -71 72 -95 41 -123 -17 -15 -50 -17 -351 -14 l-332 3
-71 78 -72 78 -255 -1 c-186 0 -259 3 -268 12 -9 9 -12 141 -12 532 l0 520
-84 -82 c-101 -99 -135 -107 -160 -38 -5 15 23 49 136 162 87 88 150 144 162
144 11 0 73 -53 153 -132z m10485 -5 c110 -110 138 -143 138 -165 0 -28 -23
-48 -57 -48 -10 0 -55 37 -100 82 l-83 83 0 -517 c0 -456 -2 -518 -16 -532
-13 -14 -52 -16 -268 -16 l-253 0 -76 -80 -75 -80 -328 0 c-291 0 -329 2 -346
17 -30 27 -21 55 43 126 l61 67 -30 38 c-17 20 -44 50 -61 66 -32 31 -38 54
-21 87 10 18 25 19 350 19 l338 0 69 -75 70 -75 216 0 217 0 0 477 0 478 -83
-83 c-45 -45 -91 -82 -101 -82 -26 0 -56 29 -56 54 0 28 267 296 295 296 12 0
72 -53 157 -137z m1110 -90 c126 -126 231 -238 235 -251 7 -29 -22 -62 -55
-62 -20 0 -66 40 -199 172 l-173 172 0 -962 c0 -949 0 -962 -20 -982 -19 -19
-33 -20 -474 -20 l-454 0 -133 -140 -132 -140 -578 0 c-512 0 -579 2 -593 16
-32 31 -18 57 99 179 63 66 114 127 114 135 1 8 -51 71 -114 139 -66 72 -115
133 -115 145 0 11 7 28 17 38 15 17 47 18 592 18 l576 0 78 -82 c43 -46 101
-109 129 -140 l51 -58 423 0 424 0 0 937 0 938 -183 -183 c-120 -119 -189
-182 -203 -182 -30 0 -58 34 -51 62 4 13 109 125 235 251 170 170 234 227 252
227 18 0 82 -57 252 -227z m-32406 123 c17 -13 19 -30 22 -189 l3 -175 -26
-20 c-15 -12 -34 -18 -43 -15 -38 13 -42 32 -42 209 0 167 1 173 22 188 28 20
39 20 64 2z m422 -2 c21 -15 22 -21 22 -193 0 -131 -3 -181 -12 -188 -27 -21
-47 -21 -72 -2 l-26 20 0 170 c0 156 2 171 20 189 24 24 38 25 68 4z m13322
-4 c18 -18 20 -33 20 -188 0 -185 -5 -204 -55 -204 -52 0 -56 19 -53 210 3
158 5 175 22 188 27 19 42 18 66 -6z m418 4 c21 -15 22 -20 22 -194 0 -179 0
-180 -24 -195 -28 -19 -58 -9 -76 25 -5 10 -10 87 -10 173 0 141 2 157 21 181
24 30 36 32 67 10z m-13942 -419 c21 -29 20 -332 -2 -363 -18 -26 -50 -28 -76
-5 -16 14 -18 34 -18 186 0 145 2 173 17 189 20 22 60 19 79 -7z m13736 8 c16
-14 18 -34 18 -189 0 -144 -3 -175 -16 -188 -20 -21 -53 -20 -76 1 -16 14 -18
34 -18 185 0 155 2 170 20 188 24 24 47 25 72 3z m8986 -109 c49 -34 35 -55
-180 -271 -212 -212 -228 -224 -270 -186 -10 9 -18 25 -18 36 0 34 406 437
440 437 3 0 16 -7 28 -16z m890 0 c49 -34 36 -55 -180 -271 -165 -165 -208
-203 -230 -203 -35 0 -64 40 -49 67 14 25 415 423 427 423 5 0 20 -7 32 -16z
m4384 -191 c213 -212 230 -237 196 -271 -34 -34 -59 -17 -271 196 -114 114
-207 214 -207 220 0 17 45 62 62 62 6 0 106 -93 220 -207z m886 5 c112 -112
208 -211 213 -221 15 -27 -14 -67 -49 -67 -40 0 -432 392 -432 432 0 25 30 58
54 58 6 0 102 -91 214 -202z m-29096 -165 c14 -12 18 -31 18 -82 0 -72 -4 -82
-38 -100 -19 -10 -28 -10 -48 4 -22 14 -24 22 -24 86 0 39 5 79 10 90 13 24
57 25 82 2z m426 5 c7 -7 12 -43 12 -90 0 -72 -2 -79 -26 -94 -24 -16 -27 -16
-52 3 -24 18 -27 28 -30 88 -2 52 1 72 14 86 19 21 64 25 82 7z m13316 -4 c12
-11 16 -35 16 -85 0 -56 -4 -73 -21 -90 -14 -14 -27 -18 -42 -14 -37 11 -47
35 -47 106 0 74 14 99 55 99 13 0 31 -7 39 -16z m424 4 c7 -7 12 -43 12 -90 0
-71 -2 -79 -24 -93 -28 -19 -58 -9 -76 25 -16 29 -12 122 6 148 17 24 62 30
82 10z m-13958 -408 c27 -27 29 -144 3 -172 -20 -22 -51 -23 -75 -1 -27 24
-26 145 2 173 11 11 27 20 35 20 8 0 24 -9 35 -20z m13738 4 c19 -13 22 -24
22 -85 0 -84 -11 -109 -47 -109 -47 0 -63 25 -63 102 0 55 4 72 20 88 24 24
38 25 68 4z m8994 -11 c10 -9 18 -25 18 -37 0 -30 -407 -436 -437 -436 -23 0
-53 34 -53 59 0 23 411 431 434 431 11 0 28 -7 38 -17z m892 1 c35 -35 21 -54
-193 -268 -188 -188 -211 -208 -235 -202 -29 7 -50 39 -42 64 3 10 97 109 209
220 207 206 227 220 261 186z m4383 -187 c163 -162 203 -207 203 -229 0 -32
-24 -58 -53 -58 -25 0 -421 392 -432 427 -7 27 25 63 57 63 15 0 85 -63 225
-203z m890 1 c112 -111 206 -210 209 -220 8 -25 -13 -57 -42 -64 -24 -6 -47
14 -235 202 -128 128 -209 216 -209 228 0 26 28 56 53 56 14 0 93 -72 224
-202z m-4190 -120 c180 -180 233 -239 233 -258 0 -36 -454 -490 -490 -490 -36
0 -490 454 -490 490 0 36 454 490 490 490 19 0 78 -53 257 -232z m1236 -6
c130 -131 237 -244 237 -252 0 -23 -472 -490 -495 -490 -23 0 -495 466 -495
490 0 24 471 490 495 490 13 0 103 -83 258 -238z m1235 5 c174 -174 232 -239
232 -257 0 -36 -454 -490 -490 -490 -36 0 -490 453 -490 490 0 36 454 490 490
490 20 0 77 -51 258 -233z m-24920 -748 c65 -61 134 -129 155 -150 l37 -38 0
-252 c0 -221 -2 -255 -17 -271 -34 -37 -59 -24 -191 103 -70 67 -139 135 -154
150 l-28 29 0 252 c0 220 2 254 17 270 33 37 59 23 181 -93z m9334 94 c17 -15
18 -37 18 -273 l0 -256 -154 -147 c-164 -156 -189 -170 -220 -125 -14 19 -16
62 -16 269 0 221 2 249 18 267 9 11 79 79 155 151 141 135 163 147 199 114z
m-5132 -248 l66 -65 64 65 c45 46 72 65 89 65 18 0 45 -20 91 -65 l66 -65 64
65 c45 46 72 65 89 65 18 0 45 -20 91 -65 l66 -65 64 65 c67 67 95 79 124 49
32 -32 19 -57 -78 -152 -69 -68 -99 -91 -115 -89 -12 2 -51 32 -86 67 l-65 64
-68 -67 c-37 -37 -76 -67 -87 -67 -11 0 -50 30 -87 67 l-68 67 -69 -68 c-57
-57 -73 -68 -93 -63 -31 8 -198 179 -198 202 0 26 29 55 54 55 12 0 48 -27 86
-65z m16723 17 c16 -14 17 -71 17 -934 0 -905 0 -918 -20 -938 -25 -25 -52
-26 -74 -2 -15 17 -16 94 -14 948 l3 928 24 13 c26 12 34 10 64 -15z m954
-274 l303 -303 298 296 c163 163 306 299 316 303 16 5 78 -51 323 -296 l303
-303 299 299 c246 246 303 299 326 299 23 0 80 -53 326 -299 l299 -299 303
303 c316 316 319 318 355 274 9 -12 12 -215 12 -936 0 -841 -1 -921 -17 -938
-9 -10 -26 -18 -37 -18 -14 0 -117 95 -316 295 -162 162 -299 295 -305 295 -6
0 -143 -133 -305 -295 -191 -191 -302 -295 -315 -295 -13 0 -124 104 -315 295
-162 162 -299 295 -305 295 -6 0 -143 -133 -305 -295 -190 -190 -302 -295
-315 -295 -13 0 -127 107 -320 300 l-300 300 -300 -300 c-307 -307 -323 -320
-359 -284 -15 14 -16 110 -14 947 l3 931 25 13 c14 7 27 13 30 13 2 0 141
-136 307 -302z m4131 274 c9 -12 12 -215 12 -936 0 -841 -1 -921 -17 -938 -20
-22 -51 -23 -75 -1 -17 15 -18 57 -18 937 0 507 4 926 8 932 22 33 65 36 90 6z
m-5768 -352 c20 -20 20 -33 20 -582 0 -508 -2 -563 -17 -580 -18 -20 -63 -24
-81 -6 -9 9 -12 153 -12 584 l0 573 22 15 c30 21 44 20 68 -4z m6438 4 l22
-15 0 -569 c0 -504 -2 -570 -16 -584 -20 -21 -53 -20 -76 1 -17 15 -18 46 -18
580 0 550 0 563 20 583 24 24 38 25 68 4z m-9383 -268 c15 -15 22 -31 19 -43
-3 -11 -64 -78 -135 -149 l-129 -128 135 -137 c107 -108 134 -140 129 -155
-12 -33 -26 -44 -53 -44 -21 0 -59 33 -179 153 -95 95 -154 162 -157 178 -4
22 19 48 158 187 90 89 169 162 176 162 6 0 23 -11 36 -24z m593 8 c46 -32 32
-60 -108 -199 l-130 -130 130 -130 c102 -103 130 -136 130 -157 0 -28 -23 -48
-57 -48 -25 0 -333 309 -333 335 0 20 315 345 335 345 6 0 21 -7 33 -16z m602
-4 c11 -11 20 -28 20 -37 0 -10 -59 -77 -132 -150 l-132 -133 132 -133 c73
-74 132 -142 132 -152 0 -26 -29 -55 -54 -55 -13 0 -76 55 -178 157 -122 121
-158 164 -158 183 0 20 36 62 158 183 87 86 166 157 175 157 9 0 26 -9 37 -20z
m600 0 c11 -11 20 -28 20 -37 0 -10 -59 -77 -132 -150 l-132 -133 132 -133
c73 -74 132 -140 132 -148 0 -28 -31 -59 -58 -59 -21 0 -59 33 -184 158 -135
134 -157 161 -153 182 6 31 314 340 338 340 9 0 26 -9 37 -20z m8881 -136 c87
-86 160 -166 163 -177 4 -17 -27 -53 -156 -184 -100 -100 -170 -163 -182 -163
-26 0 -56 28 -56 53 0 13 51 71 132 154 l132 133 -132 133 c-73 73 -132 140
-132 150 0 22 35 57 57 57 9 0 87 -70 174 -156z m601 -2 c118 -118 158 -164
158 -182 0 -19 -40 -65 -157 -182 -161 -162 -183 -176 -217 -142 -33 33 -19
56 114 189 l130 129 -130 132 c-100 100 -130 137 -130 157 0 27 32 57 59 57 9
0 86 -71 173 -158z m595 -4 c104 -103 163 -170 163 -182 0 -13 -58 -79 -157
-178 -161 -161 -188 -179 -221 -146 -32 32 -14 61 118 193 l130 130 -130 130
c-103 102 -130 135 -130 157 0 25 30 58 54 58 5 0 83 -73 173 -162z m600 -1
c98 -98 163 -170 163 -182 0 -12 -63 -82 -158 -177 -124 -125 -163 -158 -184
-158 -26 0 -58 31 -58 56 0 6 59 69 130 139 72 71 130 134 130 139 0 6 -58 69
-130 141 -71 73 -130 138 -130 145 0 19 40 60 59 60 8 0 89 -73 178 -163z
m-29731 -64 l154 -146 0 -255 c0 -224 -2 -258 -17 -274 -36 -40 -49 -32 -250
163 l-122 117 -1 253 c0 223 1 254 16 270 35 39 59 26 220 -128z m9304 128 c6
-12 10 -117 10 -270 l0 -251 -32 -34 c-18 -18 -88 -86 -155 -150 -129 -124
-157 -138 -187 -94 -14 19 -16 62 -16 270 l0 248 33 34 c17 18 87 86 154 150
100 96 126 116 152 116 20 0 34 -7 41 -19z m10224 -73 c13 -18 16 -53 16 -175
0 -140 -2 -155 -20 -173 -24 -24 -47 -25 -72 -3 -16 14 -18 34 -18 179 0 134
3 165 16 178 22 23 60 20 78 -6z m7798 5 c16 -14 18 -34 18 -176 0 -135 -3
-163 -17 -179 -21 -23 -48 -23 -72 1 -17 17 -19 36 -20 176 -2 135 1 160 15
176 21 23 52 24 76 2z m-11119 -795 c13 -18 41 -67 62 -108 91 -178 313 -541
463 -760 1248 -1813 3158 -3028 5327 -3389 214 -36 455 -66 695 -85 329 -28
852 -30 1180 -6 201 15 529 49 630 65 546 89 921 179 1375 329 1571 521 2917
1491 3915 2821 215 288 456 664 635 992 42 78 86 150 97 159 18 17 22 17 46 3
39 -22 39 -55 -3 -128 -19 -35 -35 -65 -35 -67 0 -9 -146 -264 -223 -389 -249
-404 -525 -778 -843 -1143 -158 -181 -544 -569 -719 -721 -924 -807 -1901
-1349 -3080 -1710 -296 -91 -814 -206 -1100 -245 -22 -3 -87 -12 -145 -20 -58
-8 -134 -17 -170 -21 -36 -3 -74 -8 -85 -10 -47 -11 -444 -35 -673 -41 -211
-6 -702 8 -785 21 -12 2 -60 6 -107 10 -431 30 -1112 156 -1540 284 -318 95
-498 156 -748 255 -670 264 -1320 627 -1894 1059 -893 671 -1648 1524 -2195
2483 -183 321 -194 348 -151 378 32 23 44 20 71 -16z m-16294 -100 c42 -40
113 -109 159 -153 l83 -80 -2 -255 c-2 -361 -2 -361 -232 -139 l-157 151 0
254 c0 241 1 255 20 274 11 11 27 20 36 20 9 0 51 -32 93 -72z m9381 52 c19
-19 20 -33 20 -273 0 -188 -3 -257 -12 -269 -44 -53 -303 -288 -319 -288 -10
0 -28 9 -39 20 -19 19 -20 33 -20 271 l0 250 48 49 c123 125 272 260 286 260
9 0 25 -9 36 -20z m-5026 -52 c13 -19 16 -57 16 -220 0 -192 -1 -197 -22 -212
-30 -21 -44 -20 -68 4 -19 19 -20 33 -20 217 0 169 2 199 17 215 22 25 59 23
77 -4z m308 5 c16 -15 18 -35 18 -219 0 -198 -1 -203 -22 -218 -30 -21 -44
-20 -68 4 -19 19 -20 33 -20 217 0 169 2 199 17 215 20 22 51 23 75 1z m310 0
c16 -15 18 -35 18 -219 0 -198 -1 -203 -22 -218 -30 -21 -44 -20 -68 4 -19 19
-20 33 -20 217 0 169 2 199 17 215 20 22 51 23 75 1z m15535 -355 c23 -30 23
-49 -2 -74 l-24 -24 -1683 0 c-1508 0 -1686 2 -1706 16 -24 16 -28 44 -12 75
11 19 40 19 1714 19 1351 0 1706 -3 1713 -12z m1990 -220 c182 -182 233 -238
233 -258 0 -36 -454 -490 -490 -490 -36 0 -490 454 -490 490 0 36 454 490 490
490 19 0 78 -53 257 -232z m1095 135 l98 -97 32 30 c45 42 62 46 92 23 35 -28
33 -46 -11 -91 l-37 -38 102 -103 c56 -57 102 -110 102 -117 0 -7 -45 -59
-100 -115 l-100 -101 30 -29 c40 -38 48 -70 25 -95 -26 -29 -59 -25 -100 12
l-36 31 -97 -96 c-58 -58 -105 -97 -117 -97 -12 0 -58 38 -115 95 -52 52 -99
95 -105 95 -6 0 -24 -13 -40 -30 -32 -34 -60 -38 -87 -13 -27 24 -22 48 17 91
l34 38 -99 99 c-57 57 -100 108 -100 119 0 10 42 62 96 117 l97 98 -32 36
c-34 39 -38 61 -18 89 21 29 65 23 100 -13 l31 -31 97 95 c67 66 103 95 120
95 17 0 53 -29 121 -97z m1375 -135 c179 -179 233 -239 233 -258 0 -36 -454
-490 -490 -490 -36 0 -490 454 -490 490 0 36 454 490 490 490 19 0 78 -53 257
-232z m4897 216 c22 -21 20 -50 -4 -74 -20 -20 -33 -20 -1704 -20 l-1683 0
-27 21 c-30 24 -32 36 -10 67 l15 22 1699 0 c1531 0 1700 -2 1714 -16z
m-25463 -341 l70 -67 67 67 c87 86 98 87 182 2 l64 -64 67 64 c37 36 73 65 81
65 25 0 58 -31 58 -53 0 -14 -24 -46 -65 -87 l-64 -64 64 -67 c36 -37 65 -76
65 -86 0 -24 -20 -51 -40 -53 -33 -5 -44 2 -106 62 l-65 62 -49 -49 -50 -49 0
-156 0 -155 350 -333 c244 -232 350 -340 350 -354 0 -27 -28 -58 -52 -58 -11
0 -87 65 -178 150 -87 83 -162 150 -167 150 -4 0 -75 -66 -156 -148 l-147
-147 0 -247 0 -246 348 -337 c309 -300 347 -341 347 -368 0 -39 -36 -62 -69
-45 -11 6 -168 155 -348 331 l-329 320 -32 -29 c-17 -16 -170 -163 -339 -328
-248 -240 -313 -298 -335 -299 -28 0 -53 25 -53 54 0 16 154 171 521 524 l177
170 1 250 1 250 -147 147 c-81 82 -152 148 -156 148 -5 0 -78 -66 -163 -147
-85 -82 -164 -149 -175 -151 -27 -5 -59 25 -59 53 0 17 95 113 350 356 l350
333 0 156 0 156 -50 49 -50 49 -63 -61 c-34 -34 -69 -63 -77 -64 -29 -5 -60
12 -66 38 -6 21 3 35 62 94 l68 69 -67 68 c-37 37 -67 75 -67 85 0 21 35 57
56 57 9 0 47 -30 85 -67z m-4363 -342 c187 -174 206 -195 198 -225 -7 -29 -39
-50 -64 -41 -29 9 -322 299 -322 318 0 21 35 57 55 57 9 0 68 -49 133 -109z
m9340 93 c45 -31 31 -54 -128 -206 -83 -79 -160 -147 -171 -152 -28 -13 -74
32 -65 62 9 26 310 312 328 312 8 0 24 -7 36 -16z m9696 -5 c30 -24 33 -45 9
-71 -15 -17 -53 -18 -806 -18 -721 0 -792 1 -809 17 -25 23 -22 48 8 72 26 21
33 21 799 21 766 0 773 0 799 -21z m1750 0 c30 -24 33 -45 9 -71 -15 -17 -46
-18 -569 -18 l-554 0 -15 24 c-18 27 -9 57 23 75 11 7 208 11 548 11 523 0
532 0 558 -21z m6406 8 c16 -8 26 -23 28 -40 7 -59 30 -57 -574 -57 -489 0
-554 2 -568 16 -27 27 -14 73 24 87 8 3 251 6 540 6 403 1 531 -2 550 -12z
m2230 3 c34 -18 44 -48 25 -76 l-15 -24 -794 0 c-775 0 -793 0 -811 20 -22 25
-13 67 18 80 32 13 1553 13 1577 0z m-6497 -188 c9 -8 17 -22 17 -31 0 -9 -96
-112 -213 -229 -220 -219 -223 -221 -264 -189 -7 5 -13 21 -13 36 0 21 41 67
203 227 111 111 209 204 217 207 17 5 27 1 53 -21z m1296 -186 c127 -128 201
-209 201 -222 0 -44 -40 -69 -80 -48 -43 22 -410 398 -410 420 0 37 36 66 71
57 9 -3 107 -96 218 -207z m-22025 -116 l102 -100 94 96 c102 102 129 117 160
89 36 -33 25 -56 -80 -160 l-100 -100 100 -100 c101 -102 118 -133 88 -163
-30 -30 -62 -13 -158 83 -52 52 -99 95 -105 95 -6 0 -53 -43 -105 -95 -73 -74
-101 -95 -122 -95 -28 0 -48 23 -48 56 0 9 45 63 100 118 l100 102 -100 99
c-67 66 -100 107 -100 122 0 23 34 53 59 53 7 0 60 -45 115 -100z m4580 1
l101 -100 102 100 c56 54 109 99 119 99 26 0 54 -30 54 -58 0 -18 -27 -52 -97
-124 l-97 -98 97 -98 c98 -99 115 -130 85 -160 -30 -30 -61 -13 -160 85 l-98
97 -98 -97 c-83 -81 -104 -97 -130 -97 -32 0 -52 21 -52 56 0 9 45 63 100 118
l100 102 -100 99 c-67 66 -100 107 -100 122 0 23 34 53 59 53 7 0 59 -45 115
-99z m-6734 -122 c97 -92 160 -159 160 -170 0 -24 -34 -59 -57 -59 -10 0 -90
69 -177 153 -143 137 -159 155 -153 178 6 22 35 46 60 48 4 1 80 -67 167 -150z
m9300 131 c11 -11 20 -29 20 -39 0 -25 -306 -321 -331 -321 -24 0 -59 34 -59
57 0 17 288 302 319 315 25 10 30 9 51 -12z m11948 -126 c26 -18 29 -56 6 -78
-14 -14 -181 -16 -1689 -16 -1508 0 -1675 2 -1689 16 -23 22 -20 60 6 78 20
14 196 16 1683 16 1487 0 1663 -2 1683 -16z m7662 -4 c24 -24 25 -47 3 -72
-15 -17 -81 -18 -1693 -18 -1832 0 -1705 -4 -1698 57 2 17 12 32 28 40 20 10
371 13 1683 13 1644 0 1657 0 1677 -20z m-6024 -55 c8 -13 13 -32 10 -42 -10
-30 -410 -423 -431 -423 -26 0 -55 29 -55 54 0 30 407 436 437 436 13 0 29
-11 39 -25z m1286 -182 c127 -127 208 -215 208 -227 0 -26 -29 -56 -54 -56
-27 0 -436 407 -436 434 0 26 28 56 54 56 14 0 91 -70 228 -207z m-520 -101
c148 -148 238 -245 238 -257 0 -27 -468 -495 -495 -495 -27 0 -495 468 -495
495 0 27 468 495 495 495 12 0 109 -90 257 -238z m-30765 -284 c258 -258 393
-400 393 -413 0 -22 -761 -787 -794 -799 -16 -6 -93 67 -413 386 -256 256
-393 400 -393 413 0 23 777 805 800 805 8 0 191 -177 407 -392z m42980 -20
c254 -254 393 -400 393 -413 0 -12 -138 -157 -387 -407 -305 -305 -393 -388
-413 -388 -36 0 -800 763 -800 800 0 19 85 110 388 412 246 246 394 388 407
388 12 0 163 -143 412 -392z m-35862 189 c142 -136 158 -155 152 -178 -8 -31
-44 -50 -72 -38 -33 14 -315 293 -315 312 0 22 35 57 58 57 11 0 90 -68 177
-153z m9297 136 c38 -34 24 -55 -134 -205 -84 -80 -161 -147 -170 -151 -21 -8
-68 28 -68 53 0 24 309 320 334 320 11 0 28 -7 38 -17z m11516 -279 c26 -18
28 -50 5 -76 -15 -17 -65 -18 -1170 -18 -777 0 -1161 3 -1174 10 -24 13 -25
57 -2 82 15 17 65 18 1167 18 1026 0 1154 -2 1174 -16z m1111 -10 c19 -25 19
-45 -2 -71 -7 -10 -67 -13 -238 -13 -247 0 -259 3 -259 55 0 50 26 55 261 55
l218 0 20 -26z m3409 10 c26 -18 28 -50 5 -76 -15 -16 -36 -18 -238 -18 -233
0 -246 2 -260 47 -4 15 0 28 14 42 20 20 33 21 239 21 181 0 221 -3 240 -16z
m2972 -4 c24 -24 25 -47 3 -72 -15 -17 -65 -18 -1174 -18 -1039 0 -1159 2
-1173 16 -21 20 -20 53 1 76 15 17 65 18 1170 18 1140 0 1153 0 1173 -20z
m-28332 -299 c185 -174 186 -175 178 -206 -8 -30 -46 -51 -69 -39 -40 23 -317
298 -317 315 0 23 34 59 56 59 8 0 77 -58 152 -129z m9322 109 c11 -11 20 -29
20 -39 0 -18 -274 -291 -314 -313 -36 -20 -84 22 -71 62 8 25 310 310 330 310
8 0 24 -9 35 -20z m11462 -407 c22 -20 23 -56 2 -77 -14 -14 -92 -16 -706 -16
-629 0 -693 1 -710 17 -22 20 -23 51 -1 75 15 17 50 18 706 18 628 0 692 -1
709 -17z m1750 0 c22 -20 23 -56 2 -77 -14 -14 -78 -16 -557 -16 -475 0 -545
2 -565 16 -26 18 -28 50 -5 76 15 17 46 18 561 18 494 0 547 -2 564 -17z
m2871 8 c33 -13 43 -46 23 -76 l-16 -25 -550 0 c-541 0 -550 0 -571 21 -22 22
-19 55 9 77 20 15 1065 18 1105 3z m2059 -8 c22 -20 23 -51 1 -75 -15 -17 -50
-18 -710 -18 -688 0 -693 0 -714 21 -11 11 -18 27 -15 36 3 8 6 19 6 24 0 5
10 14 23 19 12 5 323 9 706 9 623 1 686 0 703 -16z m-27446 -165 c82 -77 153
-152 158 -164 7 -18 5 -28 -9 -44 -36 -40 -58 -28 -213 120 -81 78 -151 150
-156 160 -12 27 17 70 48 70 17 0 67 -41 172 -142z m9306 125 c37 -34 24 -54
-137 -207 -132 -126 -159 -147 -182 -144 -18 2 -33 13 -43 31 l-15 29 159 154
c97 93 168 154 180 154 11 0 28 -7 38 -17z m-7014 -419 c21 -15 22 -20 22
-216 0 -173 -2 -204 -17 -220 -20 -22 -51 -23 -75 -1 -16 15 -18 35 -18 215 0
185 1 199 20 218 24 24 38 25 68 4z m4580 0 c21 -15 22 -20 22 -216 0 -173 -2
-204 -17 -220 -20 -23 -55 -23 -75 0 -13 14 -16 52 -17 214 -2 187 -1 198 18
217 25 25 39 26 69 5z m-6864 -187 c148 -141 159 -154 152 -180 -9 -37 -50
-54 -80 -33 -49 35 -295 283 -301 303 -7 25 24 63 53 63 9 0 89 -69 176 -153z
m9296 135 c39 -32 21 -60 -136 -209 -80 -76 -153 -142 -161 -147 -18 -10 -66
22 -71 46 -2 9 9 29 23 46 48 57 294 282 309 282 7 0 24 -8 36 -18z m13854
-94 c21 -30 20 -44 -4 -68 -20 -20 -30 -20 -1322 -20 -1188 1 -1304 2 -1320
17 -22 20 -23 51 -1 75 15 17 70 18 1324 18 l1308 0 15 -22z m3128 5 c22 -20
23 -51 1 -75 -15 -17 -69 -18 -1320 -18 -1290 0 -1303 0 -1323 20 -24 24 -25
47 -3 72 15 17 70 18 1321 18 1201 0 1307 -1 1324 -17z m-21284 -419 c13 -9
22 -26 22 -40 0 -15 -86 -161 -221 -374 -206 -327 -223 -350 -249 -350 -21 0
-36 9 -53 33 -66 87 -427 672 -427 691 0 52 66 64 100 18 12 -16 99 -152 194
-303 95 -151 177 -274 182 -274 4 0 90 131 191 290 164 260 210 325 232 325 4
0 17 -7 29 -16z m-12474 -106 c24 -33 24 -603 0 -636 -17 -24 -62 -30 -82 -10
-17 17 -17 639 0 656 20 20 65 14 82 -10z m42964 -4 c22 -15 22 -16 22 -329 0
-340 -1 -345 -55 -345 -52 0 -55 19 -55 343 l0 298 25 24 c28 29 33 30 63 9z
m-11683 -70 c23 -23 15 -66 -15 -81 -19 -10 -120 -13 -404 -13 -339 0 -381 2
-398 17 -20 18 -24 63 -6 81 9 9 114 12 409 12 354 0 399 -2 414 -16z"/>
<path d="M18190 20385 l-305 -305 308 -308 307 -307 0 613 c0 336 -1 612 -3
612 -1 0 -139 -137 -307 -305z"/>
<path d="M18610 20080 l0 -615 307 308 308 307 -308 307 -307 308 0 -615z"/>
<path d="M21430 20415 l-335 -335 335 -335 335 -335 147 147 148 148 -175 175
c-130 131 -175 181 -175 199 0 19 45 70 175 201 l175 175 -148 148 -147 147
-335 -335z"/>
<path d="M22360 20595 l-145 -145 148 -148 147 -147 147 147 148 148 -145 145
c-80 80 -147 145 -150 145 -3 0 -70 -65 -150 -145z"/>
<path d="M23100 20595 l-145 -145 178 -178 c107 -107 177 -185 177 -196 0 -12
-70 -90 -175 -196 l-175 -175 148 -148 147 -147 335 335 335 335 -330 330
c-181 181 -334 330 -340 330 -6 0 -75 -65 -155 -145z"/>
<path d="M21987 20222 l-147 -147 148 -148 147 -147 150 150 150 150 -145 145
c-80 80 -147 145 -150 145 -3 0 -72 -66 -153 -148z"/>
<path d="M22730 20225 l-145 -145 150 -150 150 -150 147 147 148 148 -147 147
c-81 82 -150 148 -153 148 -3 0 -70 -65 -150 -145z"/>
<path d="M22362 19857 c-78 -78 -142 -147 -142 -152 0 -6 65 -75 145 -155
l145 -145 145 145 c80 80 145 149 145 155 0 10 -280 295 -290 295 -3 0 -69
-64 -148 -143z"/>
<path d="M26100 20385 l-305 -305 308 -308 307 -307 0 613 c0 336 -1 612 -3
612 -1 0 -139 -137 -307 -305z"/>
<path d="M26520 20080 l0 -615 307 308 308 307 -308 307 -307 308 0 -615z"/>
<path d="M580 20305 l0 -175 180 0 180 0 0 175 0 175 -180 0 -180 0 0 -175z"/>
<path d="M44080 20290 l0 -180 175 0 175 0 0 180 0 180 -175 0 -175 0 0 -180z"/>
<path d="M31917 14804 c-8 -49 -20 -61 -73 -72 l-39 -8 41 -7 c49 -8 60 -20
73 -73 9 -38 9 -38 10 -8 1 43 28 72 76 83 38 9 38 9 9 10 -44 1 -75 30 -83
77 l-7 39 -7 -41z"/>
<path d="M12863 14617 l-153 -242 0 -249 c0 -137 2 -247 5 -244 3 2 73 112
155 242 l150 238 -2 248 -3 248 -152 -241z"/>
<path d="M13130 14614 l0 -249 153 -242 152 -241 3 248 2 248 -58 94 c-84 133
-243 382 -248 387 -2 2 -4 -108 -4 -245z"/>
<path d="M13010 14143 c-27 -43 -96 -152 -154 -243 l-104 -165 164 -3 c91 -1
237 -1 324 0 l159 3 -152 242 c-106 169 -157 243 -170 243 -12 0 -35 -27 -67
-77z"/>
<path d="M13017 9667 c-32 -51 -103 -163 -158 -250 -54 -87 -99 -160 -99 -162
0 -3 144 -5 319 -5 l320 0 -159 251 c-87 138 -161 253 -162 255 -2 2 -30 -38
-61 -89z"/>
<path d="M12710 8928 c0 -116 2 -209 4 -207 2 2 63 97 135 212 l130 207 -134
0 -135 0 0 -212z"/>
<path d="M13183 9128 c3 -7 62 -103 131 -212 l126 -199 0 211 0 212 -131 0
c-101 0 -130 -3 -126 -12z"/>
<path d="M12920 8844 c-85 -135 -156 -250 -158 -255 -2 -5 128 -9 312 -9 174
0 316 3 316 6 0 6 -295 479 -309 496 -3 4 -76 -103 -161 -238z"/>
<path d="M12710 8258 c0 -116 2 -209 4 -207 2 2 63 97 135 212 l130 207 -134
0 -135 0 0 -212z"/>
<path d="M13183 8458 c3 -7 62 -103 131 -212 l126 -199 0 211 0 212 -131 0
c-101 0 -130 -3 -126 -12z"/>
<path d="M12961 8237 c-63 -100 -134 -212 -158 -248 -24 -36 -43 -69 -43 -73
0 -3 142 -6 315 -6 173 0 315 3 315 6 0 6 -296 480 -309 496 -3 4 -57 -75
-120 -175z"/>
<path d="M29960 13616 c0 -28 -21 -47 -69 -62 l-36 -12 33 -1 c39 -1 72 -32
72 -67 0 -14 4 -23 10 -19 6 3 10 17 10 29 0 29 20 46 63 56 l32 7 -30 8 c-41
11 -65 33 -65 62 0 12 -4 23 -10 23 -5 0 -10 -11 -10 -24z"/>
<path d="M33870 13624 c0 -36 -18 -54 -69 -70 l-36 -12 33 -1 c39 -1 72 -32
72 -67 0 -14 4 -23 10 -19 6 3 10 17 10 29 0 29 20 46 63 56 l32 7 -30 8 c-37
9 -65 33 -65 54 0 9 -5 23 -10 31 -7 11 -10 8 -10 -16z"/>
<path d="M8475 12873 c-10 -15 -75 -117 -145 -228 -70 -111 -135 -213 -145
-228 l-17 -27 327 0 327 0 -19 30 c-67 111 -298 472 -304 476 -4 2 -15 -8 -24
-23z"/>
<path d="M8182 8448 c8 -13 81 -128 163 -256 120 -191 150 -231 160 -220 9 10
265 412 309 486 6 9 -61 12 -320 12 l-326 0 14 -22z"/>
<path d="M17493 12648 l-160 -253 164 -3 c90 -1 236 -1 324 0 l159 3 -151 240
c-83 132 -157 246 -164 253 -10 11 -42 -35 -172 -240z"/>
<path d="M17363 8418 c18 -29 91 -144 161 -256 104 -165 131 -201 141 -190 10
10 281 437 309 486 6 9 -61 12 -319 12 l-326 0 34 -52z"/>
<path d="M28011 12464 c-1 -41 -36 -84 -67 -84 -33 0 -22 -16 16 -23 32 -7 49
-35 51 -85 1 -18 4 -13 10 18 9 46 30 70 60 70 10 0 21 5 24 10 3 6 -3 10 -13
10 -32 0 -64 34 -72 76 -7 36 -8 37 -9 8z"/>
<path d="M35827 12451 c-9 -44 -34 -71 -64 -71 -14 0 -21 -4 -18 -10 3 -5 14
-10 24 -10 24 0 47 -27 59 -70 l10 -35 1 30 c1 41 27 75 56 75 13 0 27 5 30
10 3 6 -4 10 -17 10 -37 0 -60 23 -67 66 l-7 39 -7 -34z"/>
<path d="M30862 11923 l438 -438 303 303 c193 193 309 302 322 302 13 0 128
-108 320 -300 l300 -300 435 435 435 435 -1495 0 -1495 0 437 -437z m808 287
c11 -11 20 -28 20 -37 0 -24 -411 -433 -435 -433 -21 0 -412 382 -425 415 -9
24 7 62 29 68 9 3 191 5 404 6 372 0 389 -1 407 -19z m1332 3 c41 -37 27 -57
-169 -256 -196 -197 -231 -224 -261 -208 -34 19 -412 408 -412 424 0 9 9 26
20 37 19 19 33 20 412 20 350 0 393 -2 410 -17z"/>
<path d="M31125 12000 c66 -66 124 -120 130 -120 6 0 64 54 130 120 l120 120
-250 0 -250 0 120 -120z"/>
<path d="M32468 11998 l122 -123 122 123 123 122 -245 0 -245 0 123 -122z"/>
<path d="M31165 11200 l-760 -760 760 -760 760 -760 760 760 760 760 -760 760
-760 760 -760 -760z m1427 -187 c25 -22 23 -59 -4 -77 -20 -14 -99 -16 -663
-16 -697 0 -685 -1 -685 55 0 57 -27 55 682 55 592 0 653 -2 670 -17z m-762
-223 c20 -20 20 -33 20 -658 0 -561 -2 -640 -16 -660 -18 -26 -50 -28 -76 -5
-17 15 -18 48 -18 625 l0 608 -234 0 c-254 0 -266 2 -266 55 0 51 22 55 307
55 250 0 264 -1 283 -20z m760 0 c24 -24 25 -47 3 -72 -15 -16 -36 -18 -250
-18 l-233 0 0 -603 c0 -529 -2 -605 -16 -625 -18 -26 -50 -28 -76 -5 -17 15
-18 49 -18 664 l0 648 22 15 c19 14 64 16 285 16 250 0 264 -1 283 -20z"/>
<path d="M29618 10917 c352 -352 452 -458 452 -477 0 -19 -101 -126 -457 -482
l-458 -458 1015 0 1015 0 -458 458 c-290 290 -457 465 -457 477 0 13 167 187
457 477 l458 458 -1010 0 -1010 0 453 -453z m986 231 c9 -12 16 -27 16 -32 0
-20 -414 -426 -435 -426 -13 0 -93 73 -222 202 -207 207 -225 232 -191 266 9
9 115 12 414 12 l403 0 15 -22z m-190 -1217 c190 -190 208 -211 202 -235 -4
-16 -17 -31 -32 -36 -15 -6 -184 -10 -402 -10 -415 0 -422 1 -422 58 0 23 38
66 203 230 125 124 211 202 223 202 12 0 99 -80 228 -209z"/>
<path d="M30065 10940 l120 -120 117 117 c65 65 118 119 118 120 0 2 -107 3
-237 3 l-238 0 120 -120z"/>
<path d="M30060 9885 l-125 -125 250 0 250 0 -125 125 c-69 69 -125 125 -125
125 0 0 -56 -56 -125 -125z"/>
<path d="M33123 10912 c251 -252 457 -464 457 -472 0 -8 -208 -223 -462 -477
l-463 -463 1020 0 1020 0 -458 458 c-358 358 -457 462 -457 482 0 20 98 123
452 477 l453 453 -1010 0 -1010 0 458 -458z m955 246 c34 -34 16 -59 -190
-265 -154 -154 -209 -203 -227 -203 -19 0 -74 48 -223 198 -109 108 -201 207
-205 220 -3 14 1 30 12 42 17 19 34 20 420 20 298 0 404 -3 413 -12z m-191
-1220 c165 -164 203 -207 203 -230 0 -57 -7 -58 -422 -58 -402 0 -423 2 -435
48 -5 21 20 50 203 233 129 129 216 209 228 209 12 0 98 -78 223 -202z"/>
<path d="M33545 10940 l120 -120 117 117 c65 65 118 119 118 120 0 2 -107 3
-237 3 l-238 0 120 -120z"/>
<path d="M33540 9885 l-125 -125 250 0 250 0 -125 125 c-69 69 -125 125 -125
125 0 0 -56 -56 -125 -125z"/>
<path d="M32245 9090 c-231 -231 -306 -300 -325 -300 -19 0 -93 68 -322 297
l-298 298 -431 -431 c-237 -237 -427 -433 -423 -435 5 -2 674 -2 1487 1 l1477
5 -433 433 -432 432 -300 -300z m-763 -167 c115 -114 208 -214 208 -222 0 -8
-7 -23 -17 -33 -15 -17 -41 -18 -418 -18 -310 0 -405 3 -412 13 -32 41 -30 44
184 259 133 134 215 208 228 208 13 0 94 -74 227 -207z m1341 -1 c114 -114
207 -212 207 -218 0 -5 -7 -20 -16 -32 l-15 -22 -401 0 c-360 0 -403 2 -420
17 -10 9 -18 23 -18 32 0 24 411 431 435 431 13 0 93 -73 228 -208z"/>
<path d="M31135 8880 l-120 -120 240 0 240 0 -120 120 c-66 66 -120 120 -120
120 0 0 -54 -54 -120 -120z"/>
<path d="M32476 8881 c-65 -65 -114 -120 -110 -122 5 -2 111 -2 237 1 l227 5
-117 118 -118 117 -119 -119z"/>
<path d="M6043 11208 l-160 -253 164 -3 c90 -1 236 -1 323 0 l158 3 -155 245
c-85 135 -158 249 -162 253 -5 5 -80 -106 -168 -245z"/>
<path d="M6151 10710 c-28 -45 -51 -83 -51 -85 0 -3 47 -5 105 -5 58 0 105 2
105 6 0 6 -101 164 -105 164 -2 0 -26 -36 -54 -80z"/>
<path d="M6148 10369 l-57 -89 114 0 115 0 -52 83 c-28 45 -54 85 -57 89 -3 4
-32 -33 -63 -83z"/>
<path d="M6151 10040 c-29 -45 -50 -84 -47 -87 6 -6 198 -4 204 1 4 4 -73 132
-93 154 -10 11 -22 -3 -64 -68z"/>
<path d="M6184 9757 c-11 -18 -37 -58 -57 -89 l-37 -58 115 0 115 0 -56 88
c-31 48 -57 88 -58 89 -1 1 -11 -13 -22 -30z"/>
<path d="M19784 11208 l-160 -253 164 -3 c90 -1 235 -1 322 0 l159 3 -153 243
c-85 134 -158 248 -163 253 -6 6 -68 -83 -169 -243z"/>
<path d="M19891 10708 l-51 -83 101 -3 c56 -1 104 -1 106 2 5 5 -86 154 -98
162 -4 2 -30 -33 -58 -78z"/>
<path d="M19893 10376 c-29 -46 -53 -86 -53 -90 0 -3 50 -6 110 -6 l110 0 -51
83 c-28 45 -54 85 -58 89 -3 4 -30 -31 -58 -76z"/>
<path d="M19891 10038 l-51 -83 101 -3 c56 -1 104 -1 106 2 5 5 -86 154 -98
162 -4 2 -30 -33 -58 -78z"/>
<path d="M19895 9708 c-28 -44 -51 -85 -53 -90 -2 -4 46 -8 107 -8 l111 0 -51
83 c-28 45 -54 85 -58 89 -3 4 -29 -29 -56 -74z"/>
<path d="M27567 10892 l-457 -457 455 -455 455 -455 458 458 457 457 -455 455
-455 455 -458 -458z m731 -185 c138 -139 252 -260 252 -268 0 -19 -511 -529
-530 -529 -8 0 -128 114 -267 253 -192 191 -253 258 -253 277 0 36 484 520
520 520 20 0 80 -54 278 -253z"/>
<path d="M27820 10635 l-195 -195 198 -198 197 -197 197 197 198 198 -195 195
c-107 107 -197 195 -200 195 -3 0 -93 -88 -200 -195z"/>
<path d="M35370 10895 l-455 -455 458 -458 457 -457 455 455 455 455 -458 458
-457 457 -455 -455z m729 -189 c220 -220 253 -257 248 -277 -4 -13 -118 -136
-256 -273 -219 -219 -252 -247 -272 -241 -32 9 -508 484 -516 514 -5 20 28 57
248 277 164 164 261 254 274 254 13 0 110 -90 274 -254z"/>
<path d="M35630 10635 l-195 -195 198 -198 197 -197 195 195 195 195 -198 198
-197 197 -195 -195z"/>
<path d="M24820 10555 l-115 -115 115 -115 115 -115 69 0 70 0 -102 104 c-56
57 -102 112 -102 122 0 10 47 66 107 126 l108 108 -75 0 -75 0 -115 -115z"/>
<path d="M25117 10552 l-117 -117 113 -113 112 -112 65 0 64 0 -107 109 c-59
59 -107 114 -107 121 0 7 48 62 107 121 l107 109 -60 0 -59 0 -118 -118z"/>
<path d="M26047 10552 l-117 -117 113 -113 112 -112 60 0 60 0 -103 103 c-74
74 -102 109 -102 127 0 18 28 53 102 127 l103 103 -55 0 -55 0 -118 -118z"/>
<path d="M26310 10555 l-115 -115 115 -115 115 -115 75 0 75 0 -103 103 c-74
74 -102 109 -102 127 0 18 28 53 102 127 l103 103 -75 0 -75 0 -115 -115z"/>
<path d="M37373 10562 c60 -60 107 -116 107 -126 0 -10 -46 -65 -102 -122
l-102 -104 75 0 74 0 115 115 115 115 -115 115 -115 115 -80 0 -80 0 108 -108z"/>
<path d="M37678 10566 c69 -70 102 -110 102 -126 0 -16 -33 -56 -102 -126
l-102 -104 60 0 59 0 113 113 112 112 -118 118 -117 117 -55 0 -54 0 102 -104z"/>
<path d="M38598 10567 c74 -74 102 -109 102 -127 0 -18 -28 -53 -102 -127
l-103 -103 60 0 60 0 115 115 115 115 -115 115 -115 115 -60 0 -60 0 103 -103z"/>
<path d="M38873 10561 c59 -59 107 -114 107 -122 0 -7 -48 -62 -107 -121
l-108 -108 75 0 75 0 115 115 115 115 -115 115 -115 115 -74 0 -75 0 107 -109z"/>
<path d="M10682 9147 c-50 -51 -92 -97 -92 -102 0 -6 242 -252 538 -548 l537
-537 103 103 102 102 -538 538 c-295 295 -542 537 -547 537 -6 0 -52 -42 -103
-93z"/>
<path d="M10437 8902 c-37 -37 -67 -72 -67 -77 0 -13 182 -195 195 -195 6 0
41 30 78 68 l67 67 -103 103 -102 102 -68 -68z"/>
<path d="M10217 8682 c-37 -37 -67 -72 -67 -77 0 -13 182 -195 195 -195 6 0
41 30 78 68 l67 67 -103 103 -102 102 -68 -68z"/>
<path d="M10387 8292 c-218 -218 -397 -402 -397 -407 0 -6 45 -55 100 -110
l100 -100 288 288 c183 183 294 287 307 287 13 0 124 -104 307 -287 l288 -288
105 105 105 105 -403 403 -402 402 -398 -398z"/>
<path d="M9995 8460 l-70 -70 103 -103 102 -102 70 70 70 70 -103 103 -102
102 -70 -70z"/>
<path d="M9775 8240 l-70 -70 103 -103 102 -102 70 70 70 70 -103 103 -102
102 -70 -70z"/>
<path d="M10525 7860 l-260 -260 255 -255 c140 -140 259 -255 265 -255 6 0
125 115 265 255 l255 255 -260 260 -260 260 -260 -260z m417 -97 c86 -85 138
-145 138 -158 0 -27 -268 -295 -295 -295 -27 0 -295 268 -295 295 0 27 268
295 295 295 12 0 72 -53 157 -137z"/>
<path d="M10707 7692 c-42 -42 -77 -82 -77 -87 0 -6 35 -45 78 -88 l77 -77 83
83 82 82 -83 83 -82 82 -78 -78z"/>
<path d="M9945 7280 l-240 -240 253 -253 252 -252 242 243 243 242 -250 250
c-137 137 -252 250 -255 250 -3 0 -113 -108 -245 -240z m428 -98 c75 -76 137
-145 137 -152 0 -19 -282 -300 -300 -300 -18 0 -300 281 -300 300 0 7 62 76
137 152 106 107 143 138 163 138 20 0 57 -31 163 -138z"/>
<path d="M10125 7110 l-80 -80 83 -83 82 -82 82 82 83 83 -80 80 c-44 44 -82
80 -85 80 -3 0 -41 -36 -85 -80z"/>
<path d="M11125 7270 l-250 -250 240 -240 c132 -132 244 -240 250 -240 6 0
121 111 258 248 l247 247 -243 243 c-133 133 -244 242 -247 242 -3 0 -118
-112 -255 -250z m398 -88 c75 -76 137 -145 137 -153 0 -19 -282 -299 -300
-299 -7 0 -76 62 -152 137 -105 104 -138 143 -138 162 0 37 254 291 290 291
20 0 58 -32 163 -138z"/>
<path d="M11275 7110 l-80 -80 83 -83 82 -82 82 82 83 83 -80 80 c-44 44 -82
80 -85 80 -3 0 -41 -36 -85 -80z"/>
<path d="M10530 6705 l-245 -245 253 -252 252 -253 250 250 250 250 -247 247
c-137 137 -252 248 -258 248 -6 0 -120 -110 -255 -245z m412 -92 c86 -85 138
-145 138 -158 0 -27 -268 -295 -295 -295 -27 0 -295 268 -295 295 0 27 269
295 296 295 11 0 76 -57 156 -137z"/>
<path d="M10697 6532 l-77 -77 83 -83 82 -82 83 83 82 82 -78 78 c-42 42 -82
77 -87 77 -6 0 -45 -35 -88 -78z"/>
<path d="M10092 6267 l-112 -112 403 -403 402 -402 403 403 402 402 -112 112
-113 113 -281 -281 c-249 -248 -285 -280 -305 -274 -13 4 -148 130 -299 281
l-275 274 -113 -113z"/>
<path d="M9805 5980 l-100 -100 540 -540 540 -540 100 100 100 100 -540 540
-540 540 -100 -100z"/>
<path d="M11592 6007 l-72 -72 100 -100 100 -100 72 73 73 72 -100 100 -100
100 -73 -73z"/>
<path d="M11372 5787 l-72 -72 100 -100 100 -100 72 73 73 72 -100 100 -100
100 -73 -73z"/>
<path d="M11152 5567 l-72 -72 100 -100 100 -100 72 73 73 72 -100 100 -100
100 -73 -73z"/>
<path d="M10932 5347 l-72 -72 100 -100 100 -100 72 73 73 72 -100 100 -100
100 -73 -73z"/>
<path d="M14822 8707 c-292 -292 -532 -537 -532 -542 0 -13 182 -195 195 -195
13 0 1075 1062 1075 1075 0 13 -182 195 -195 195 -6 0 -250 -240 -543 -533z"/>
<path d="M15542 8867 c-50 -51 -92 -97 -92 -102 0 -13 122 -135 135 -135 14 0
195 182 195 195 0 13 -122 135 -135 135 -6 0 -52 -42 -103 -93z"/>
<path d="M15762 8647 l-102 -102 68 -68 c37 -37 72 -67 77 -67 13 0 195 182
195 195 0 6 -30 41 -68 78 l-67 67 -103 -103z"/>
<path d="M14967 8292 c-218 -218 -397 -402 -397 -407 0 -6 45 -55 100 -110
l100 -100 288 288 c183 183 294 287 307 287 13 0 124 -104 307 -287 l288 -288
105 105 105 105 -403 403 -402 402 -398 -398z"/>
<path d="M15982 8427 l-102 -102 68 -68 c37 -37 72 -67 77 -67 13 0 195 182
195 195 0 6 -30 41 -68 78 l-67 67 -103 -103z"/>
<path d="M16202 8207 l-102 -102 70 -70 70 -70 103 103 102 102 -70 70 -70 70
-103 -103z"/>
<path d="M15105 7860 l-260 -260 255 -255 c140 -140 259 -255 265 -255 6 0
125 115 265 255 l255 255 -260 260 -260 260 -260 -260z m417 -97 c86 -85 138
-145 138 -158 0 -27 -268 -295 -295 -295 -27 0 -295 268 -295 295 0 27 268
295 295 295 12 0 72 -53 157 -137z"/>
<path d="M15287 7692 c-42 -42 -77 -82 -77 -87 0 -6 35 -45 78 -88 l77 -77 83
83 82 82 -83 83 -82 82 -78 -78z"/>
<path d="M14525 7280 l-240 -240 253 -253 252 -252 242 243 243 242 -250 250
c-137 137 -252 250 -255 250 -3 0 -113 -108 -245 -240z m428 -98 c75 -76 137
-145 137 -152 0 -19 -282 -300 -300 -300 -8 0 -79 64 -157 143 -115 114 -142
147 -137 163 4 10 66 79 138 152 100 101 137 132 156 132 20 0 58 -32 163
-138z"/>
<path d="M14705 7110 l-80 -80 83 -83 82 -82 82 82 83 83 -80 80 c-44 44 -82
80 -85 80 -3 0 -41 -36 -85 -80z"/>
<path d="M15705 7270 l-250 -250 240 -240 c132 -132 244 -240 250 -240 6 0
121 111 258 248 l247 247 -243 243 c-133 133 -244 242 -247 242 -3 0 -118
-112 -255 -250z m397 -87 c76 -76 138 -145 138 -153 0 -19 -281 -300 -300
-300 -7 0 -76 62 -152 137 -105 104 -138 143 -138 162 0 37 254 291 290 291
19 0 59 -34 162 -137z"/>
<path d="M15855 7110 l-80 -80 83 -83 82 -82 82 82 83 83 -80 80 c-44 44 -82
80 -85 80 -3 0 -41 -36 -85 -80z"/>
<path d="M15110 6705 l-245 -245 253 -252 252 -253 250 250 250 250 -247 247
c-137 137 -252 248 -258 248 -6 0 -120 -110 -255 -245z m412 -92 c86 -85 138
-145 138 -158 0 -27 -268 -295 -295 -295 -13 0 -72 52 -159 139 -118 118 -138
142 -133 163 8 31 268 288 293 288 11 0 76 -57 156 -137z"/>
<path d="M15277 6532 l-77 -77 83 -83 82 -82 83 83 82 82 -78 78 c-42 42 -82
77 -87 77 -6 0 -45 -35 -88 -78z"/>
<path d="M14672 6267 l-112 -112 403 -403 402 -402 403 403 402 402 -112 112
-113 113 -281 -281 c-249 -248 -285 -280 -305 -274 -13 4 -148 130 -299 281
l-275 274 -113 -113z"/>
<path d="M15705 5540 l-540 -540 103 -102 102 -103 540 540 540 540 -103 103
-102 102 -540 -540z"/>
<path d="M14387 5972 l-97 -97 70 -70 70 -70 100 100 100 100 -67 67 c-37 38
-70 68 -73 68 -3 0 -49 -44 -103 -98z"/>
<path d="M14605 5760 l-100 -100 73 -72 72 -73 100 100 100 100 -73 73 -72 72
-100 -100z"/>
<path d="M14825 5540 l-100 -100 73 -72 72 -73 100 100 100 100 -73 73 -72 72
-100 -100z"/>
<path d="M15045 5320 l-100 -100 73 -72 72 -73 100 100 100 100 -73 73 -72 72
-100 -100z"/>
<path d="M26787 7405 l-79 -85 357 2 357 3 76 83 75 82 -354 0 -354 -1 -78
-84z"/>
<path d="M27664 7428 c-33 -35 -68 -73 -78 -85 l-19 -23 54 0 54 1 78 84 79
85 -54 0 c-53 0 -55 -1 -114 -62z"/>
<path d="M26782 7128 l76 -83 357 -3 357 -2 -79 85 -78 84 -354 1 -354 0 75
-82z"/>
<path d="M27636 7126 l79 -84 54 -1 54 -1 -19 23 c-10 12 -45 50 -78 85 -60
61 -61 62 -115 62 l-54 0 79 -84z"/>
<path d="M27335 8250 c-18 -20 -17 -20 147 -20 152 0 166 2 183 20 18 20 17
20 -147 20 -152 0 -166 -2 -183 -20z"/>
<path d="M27337 8095 c18 -24 19 -24 181 -25 l162 0 -16 25 c-16 25 -16 25
-181 25 l-164 0 18 -25z"/>
<path d="M36185 8250 c17 -18 31 -20 183 -20 164 0 165 0 147 20 -17 18 -31
20 -183 20 -164 0 -165 0 -147 -20z"/>
<path d="M36180 8095 l-23 -25 165 0 c163 0 165 0 188 25 l23 25 -165 0 c-163
0 -165 0 -188 -25z"/>
<path d="M36095 7406 c74 -82 78 -84 127 -88 27 -1 51 -1 53 2 2 3 -30 43 -72
88 l-75 82 -55 0 -55 0 77 -84z"/>
<path d="M36300 7463 c14 -16 49 -54 79 -85 l55 -58 355 0 355 0 -80 84 -79
83 -354 2 -354 1 23 -27z"/>
<path d="M36107 7132 c-42 -42 -77 -81 -77 -85 0 -4 22 -7 48 -7 47 0 50 2
125 79 42 43 77 81 77 85 0 3 -21 6 -48 6 -46 0 -50 -2 -125 -78z"/>
<path d="M36357 7126 c-43 -46 -77 -86 -77 -88 0 -2 159 -2 353 0 l353 2 78
85 77 85 -354 0 -354 0 -76 -84z"/>
<path d="M30505 7600 l-180 -180 183 -183 182 -182 182 182 183 183 -180 180
c-99 99 -182 180 -185 180 -3 0 -86 -81 -185 -180z"/>
<path d="M31740 7595 l-125 -125 128 0 127 0 0 125 c0 69 -1 125 -3 125 -1 0
-58 -56 -127 -125z"/>
<path d="M31980 7595 l0 -125 127 0 128 0 -125 125 c-69 69 -126 125 -127 125
-2 0 -3 -56 -3 -125z"/>
<path d="M31745 7240 c66 -66 121 -120 122 -120 2 0 3 54 3 120 l0 120 -122 0
-123 0 120 -120z"/>
<path d="M31980 7238 l0 -123 120 120 c66 66 120 121 120 122 0 2 -54 3 -120
3 l-120 0 0 -122z"/>
<path d="M32975 7600 l-180 -180 183 -183 182 -182 182 182 183 183 -180 180
c-99 99 -182 180 -185 180 -3 0 -86 -81 -185 -180z"/>
<path d="M8411 6699 l2 -164 83 -79 84 -80 -1 165 0 164 -85 79 -84 78 1 -163z"/>
<path d="M17652 6777 l-83 -83 3 -156 3 -155 83 77 83 77 -3 162 -3 161 -83
-83z"/>
<path d="M30995 6380 c-166 -165 -307 -300 -315 -300 -8 0 -136 122 -285 270
-149 149 -273 270 -275 270 -3 0 -4 -345 -2 -767 l2 -768 273 273 c170 170
279 272 292 272 12 0 131 -111 320 -300 l300 -300 300 300 c190 190 307 300
320 300 12 0 130 -110 320 -300 l300 -300 295 295 c162 163 306 298 319 302
20 5 59 -30 297 -268 l274 -274 0 770 0 770 -269 -269 c-221 -220 -274 -268
-296 -268 -23 0 -80 52 -324 296 l-296 296 -285 -286 c-157 -157 -296 -291
-310 -298 -15 -8 -33 -10 -45 -6 -11 5 -150 139 -310 299 -159 160 -292 291
-295 291 -3 0 -140 -135 -305 -300z m597 -228 c206 -206 268 -273 268 -292 0
-36 -524 -560 -559 -560 -19 0 -85 60 -279 253 -139 138 -260 264 -268 280
-10 19 -12 33 -5 45 22 39 538 542 556 542 12 0 121 -102 287 -268z m1240 1
c209 -209 268 -273 268 -293 0 -19 -59 -84 -267 -292 -173 -173 -275 -268
-288 -268 -13 0 -115 95 -288 268 -208 208 -267 273 -267 292 0 20 59 84 268
293 164 163 275 267 287 267 12 0 123 -104 287 -267z m-2340 -150 c79 -79 128
-135 128 -148 0 -28 -248 -275 -277 -275 -48 0 -53 26 -53 278 0 142 4 241 10
253 7 11 21 19 38 19 21 0 54 -27 154 -127z m3052 111 c14 -13 16 -51 16 -256
0 -211 -2 -244 -17 -260 -31 -35 -54 -22 -185 109 -95 95 -128 134 -128 152 0
19 32 57 123 148 128 128 155 143 191 107z"/>
<path d="M31085 6070 l-210 -210 215 -215 215 -215 212 212 213 213 -212 212
c-117 117 -215 213 -218 213 -3 0 -100 -95 -215 -210z"/>
<path d="M32325 6070 l-210 -210 215 -215 215 -215 215 215 215 215 -210 210
c-115 115 -214 210 -220 210 -6 0 -105 -95 -220 -210z"/>
<path d="M30400 5855 l0 -89 45 44 c25 24 45 45 45 45 0 0 -20 21 -45 45 l-45
44 0 -89z"/>
<path d="M33402 5897 l-42 -43 45 -44 45 -44 0 87 c0 48 -1 87 -3 87 -2 0 -22
-19 -45 -43z"/>
<path d="M8410 5783 l0 -158 85 -85 85 -85 0 166 0 165 -85 78 -85 77 0 -158z"/>
<path d="M17652 5859 l-82 -80 2 -159 3 -159 83 81 82 81 -2 158 -3 157 -83
-79z"/>
<path d="M8410 4864 l0 -159 78 -78 c42 -42 81 -77 85 -77 4 0 6 73 5 161 l-3
161 -82 76 -83 75 0 -159z"/>
<path d="M17653 4941 l-83 -77 0 -164 0 -165 85 85 86 86 -3 155 -3 156 -82
-76z"/>
<path d="M30505 4490 l-180 -180 183 -183 182 -182 182 182 183 183 -180 180
c-99 99 -182 180 -185 180 -3 0 -86 -81 -185 -180z"/>
<path d="M31855 4600 l-70 -70 70 -70 70 -70 70 70 70 70 -70 70 -70 70 -70
-70z"/>
<path d="M31635 4380 l-70 -70 70 -70 70 -70 70 70 70 70 -70 70 -70 70 -70
-70z"/>
<path d="M32067 4382 l-67 -68 73 -72 73 -72 69 70 69 70 -69 70 c-38 39 -72
70 -75 70 -3 0 -36 -30 -73 -68z"/>
<path d="M31847 4162 l-67 -68 73 -72 73 -72 69 70 69 70 -69 70 c-38 39 -72
70 -75 70 -3 0 -36 -30 -73 -68z"/>
<path d="M32975 4490 l-180 -180 180 -180 180 -180 182 182 183 183 -177 177
c-98 98 -180 178 -183 178 -3 0 -86 -81 -185 -180z"/>
<path d="M13035 4340 l-39 -40 39 -40 39 -40 41 40 40 40 -40 40 -41 40 -39
-40z"/>
<path d="M12905 3556 l-110 -104 113 -114 112 -113 0 218 c0 119 -1 217 -3
217 -1 0 -52 -47 -112 -104z"/>
<path d="M13130 3443 l0 -218 112 112 113 113 -75 76 c-41 41 -92 89 -112 106
l-38 30 0 -219z"/>
<path d="M31845 3280 l-70 -70 75 -75 75 -75 75 75 74 75 -69 70 c-38 38 -74
70 -80 70 -6 0 -42 -32 -80 -70z"/>
<path d="M31632 3067 c-34 -34 -62 -67 -62 -72 0 -6 80 -90 178 -188 l177
-177 178 178 c97 97 177 182 177 187 0 6 -29 40 -65 75 l-65 65 -103 -103
c-61 -61 -110 -102 -122 -102 -12 0 -60 40 -120 100 -55 55 -102 100 -105 100
-3 0 -34 -28 -68 -63z"/>
<path d="M700 2915 l-305 -305 615 0 615 0 -305 305 c-168 168 -307 305 -310
305 -3 0 -142 -137 -310 -305z"/>
<path d="M703 2193 l307 -308 307 308 308 307 -615 0 -615 0 308 -307z"/>
<path d="M43680 2895 l-305 -305 615 0 615 0 -305 305 c-168 168 -307 305
-310 305 -3 0 -142 -137 -310 -305z"/>
<path d="M43683 2173 l307 -308 307 308 308 307 -615 0 -615 0 308 -307z"/>
<path d="M21985 400 l-400 -400 292 0 292 0 10 38 c6 20 56 199 110 397 55
197 99 360 98 362 -2 1 -183 -178 -402 -397z"/>
<path d="M22615 775 c4 -16 9 -37 12 -45 3 -8 49 -174 103 -368 54 -195 100
-356 103 -358 2 -2 133 -3 291 -2 l286 3 -400 400 c-319 318 -400 394 -395
370z"/>
<path d="M22458 632 c-21 -75 -69 -248 -107 -384 l-68 -248 217 0 217 0 -106
385 c-58 212 -108 385 -111 385 -3 0 -22 -62 -42 -138z"/>
</g>
</svg>
