<?xml version="1.0" standalone="no"?>
<!DOCTYPE svg PUBLIC "-//W3C//DTD SVG 20010904//EN"
 "http://www.w3.org/TR/2001/REC-SVG-20010904/DTD/svg10.dtd">
<svg version="1.0" xmlns="http://www.w3.org/2000/svg"
 width="1200.000000pt" height="1200.000000pt" viewBox="0 0 1200.000000 1200.000000"
 preserveAspectRatio="xMidYMid meet">

<g transform="translate(0.000000,1200.000000) scale(0.100000,-0.100000)"
fill="#000000" stroke="none">
<path d="M0 6000 l0 -6000 6000 0 6000 0 0 6000 0 6000 -6000 0 -6000 0 0
-6000z m6082 4110 c25 -26 29 -36 24 -63 -8 -41 -39 -67 -81 -67 -42 0 -73 26
-81 67 -5 27 -1 37 24 63 19 18 41 30 57 30 16 0 38 -12 57 -30z m5 -236 c87
-29 166 -86 284 -203 95 -95 123 -130 153 -191 92 -188 49 -329 -167 -558 -97
-103 -176 -216 -207 -299 -27 -74 -34 -154 -16 -196 18 -44 51 -52 178 -43
123 8 219 32 316 77 188 87 315 212 337 332 9 48 -33 139 -104 222 -65 77 -78
101 -64 123 14 24 119 34 276 27 128 -5 167 -14 167 -38 0 -7 -29 -48 -65 -92
-104 -128 -139 -226 -100 -282 45 -64 152 -28 315 105 28 23 60 42 70 42 33 0
42 -60 38 -247 -4 -233 -10 -239 -137 -135 -105 85 -275 141 -338 110 -25 -12
-28 -18 -25 -56 3 -34 0 -43 -15 -48 -51 -16 -89 -39 -135 -82 -92 -86 -188
-241 -188 -305 0 -59 44 -118 119 -159 66 -36 82 -99 60 -223 -14 -73 -7 -110
23 -126 36 -19 88 4 149 67 97 102 112 115 161 140 69 35 158 53 320 64 165
11 295 36 387 74 116 47 134 31 86 -77 -42 -96 -66 -243 -74 -457 -5 -122 -13
-205 -21 -222 -22 -45 -56 -53 -166 -34 -124 21 -164 20 -260 -4 -165 -42
-340 -150 -514 -317 -143 -137 -164 -171 -158 -261 5 -78 48 -195 107 -293 29
-49 46 -67 72 -75 29 -10 36 -18 47 -60 17 -64 17 -294 0 -358 -11 -42 -18
-50 -47 -60 -65 -22 -171 -241 -179 -371 -3 -65 -1 -73 28 -117 48 -72 231
-241 339 -313 115 -76 206 -120 309 -146 92 -23 133 -24 256 -3 110 19 144 11
166 -34 8 -17 16 -100 21 -222 8 -215 31 -358 74 -454 49 -110 31 -127 -86
-80 -92 38 -222 63 -387 74 -162 11 -251 29 -320 64 -49 25 -65 39 -161 139
-53 57 -112 86 -145 74 -32 -13 -41 -53 -28 -128 25 -144 8 -192 -87 -243 -53
-28 -91 -75 -91 -111 0 -67 171 -260 272 -308 59 -28 73 -48 63 -90 -5 -20 -1
-29 20 -43 24 -16 35 -16 99 -6 87 15 196 66 256 119 66 59 89 69 109 49 13
-14 17 -46 19 -189 2 -95 0 -189 -5 -208 -13 -49 -43 -50 -99 -2 -138 116
-218 153 -281 132 -91 -30 -67 -147 62 -304 36 -44 65 -85 65 -92 0 -30 -45
-38 -220 -38 -96 0 -187 3 -202 8 -42 11 -36 44 19 108 49 57 101 135 121 182
18 41 15 76 -12 132 -57 121 -216 244 -396 307 -114 39 -332 60 -385 36 -37
-17 -50 -70 -37 -148 22 -124 86 -229 237 -392 160 -172 213 -279 201 -407 -9
-102 -58 -192 -167 -305 -105 -110 -170 -162 -259 -208 -59 -30 -73 -33 -155
-33 -104 0 -144 13 -240 81 -72 50 -210 191 -260 266 -137 207 -107 362 113
595 116 123 154 176 205 283 36 76 41 93 41 162 1 93 -10 109 -82 116 -68 6
-240 -15 -321 -40 -207 -63 -396 -221 -432 -360 -12 -44 -11 -49 19 -110 17
-34 55 -92 85 -129 66 -79 78 -101 67 -118 -12 -20 -88 -30 -220 -30 -132 0
-208 10 -220 30 -11 17 2 40 68 117 94 112 127 219 84 273 -43 53 -166 13
-292 -95 -36 -31 -75 -56 -87 -56 -36 0 -45 60 -41 252 4 228 10 233 137 130
73 -59 158 -98 247 -114 65 -10 75 -10 99 6 21 14 25 23 20 43 -9 35 15 67 72
94 99 47 263 241 263 311 0 35 -36 76 -95 107 -71 38 -90 69 -89 144 0 34 4
89 9 122 6 52 5 63 -12 84 -17 21 -25 23 -59 17 -31 -6 -55 -25 -125 -96 -132
-135 -201 -162 -454 -180 -171 -11 -301 -36 -394 -74 -78 -32 -111 -34 -111
-7 0 11 13 52 29 93 44 109 61 220 71 446 11 277 18 286 195 257 65 -11 122
-15 162 -11 194 20 403 137 616 345 98 95 139 150 151 204 10 41 -20 151 -68
254 -55 114 -91 163 -121 163 -40 0 -50 46 -50 235 0 190 10 235 51 235 31 0
63 43 118 161 50 105 80 214 70 256 -12 54 -53 109 -151 204 -178 174 -358
287 -527 329 -95 24 -138 25 -256 4 -107 -18 -150 -10 -170 34 -7 16 -15 105
-20 227 -10 223 -27 335 -71 443 -16 41 -29 82 -29 93 0 27 33 25 111 -7 93
-38 223 -63 394 -74 253 -18 322 -45 454 -180 70 -71 94 -90 125 -96 34 -6 42
-4 59 17 17 21 18 32 11 89 -21 169 -8 212 74 258 57 32 93 82 100 137 11 104
-142 313 -271 370 -58 25 -59 28 -61 90 -1 44 -40 60 -114 47 -89 -16 -167
-49 -233 -100 -33 -26 -74 -55 -90 -66 -29 -18 -32 -18 -47 -2 -14 14 -18 44
-20 184 -6 247 10 287 90 225 135 -105 166 -125 213 -138 90 -26 135 1 135 80
0 53 -35 123 -103 206 -73 87 -81 104 -62 122 33 33 397 33 430 0 19 -18 11
-35 -62 -122 -30 -37 -68 -95 -85 -129 -30 -61 -31 -66 -19 -110 41 -156 241
-312 476 -372 102 -26 290 -37 325 -18 57 31 49 157 -21 295 -40 80 -69 117
-232 299 -224 251 -206 453 65 710 184 174 321 226 465 178z m-2249 -894 c81
-58 75 -105 -12 -105 -72 0 -115 60 -81 111 20 32 43 30 93 -6z m4462 0 c11
-11 20 -24 20 -29 0 -20 -43 -60 -77 -72 -39 -13 -120 -7 -154 11 -20 11 -20
12 -2 32 19 21 81 56 123 69 43 13 69 10 90 -11z m-3464 -52 c10 -32 7 -87 -6
-103 -19 -23 -76 -38 -100 -25 -35 19 -26 63 24 115 45 48 69 52 82 13z m2055
-18 c9 -29 8 -43 -2 -66 -17 -35 -61 -58 -95 -50 -50 13 -43 69 16 128 45 45
65 42 81 -12z m-3599 4 c269 -34 407 -90 354 -143 -13 -12 -45 -17 -134 -22
-113 -6 -152 -13 -152 -28 0 -4 21 -23 48 -42 160 -115 385 -325 473 -442 112
-148 120 -227 25 -230 -59 -2 -84 35 -101 144 -9 58 -57 121 -159 208 -99 85
-179 172 -256 278 -25 35 -48 63 -51 63 -15 0 -22 -41 -29 -153 -7 -124 -19
-155 -54 -141 -21 8 -49 62 -70 134 -16 56 -56 312 -56 363 0 33 -3 32 162 11z
m1878 -6 c50 -34 76 -74 61 -91 -19 -24 -76 -30 -110 -13 -39 21 -57 71 -36
103 19 29 43 29 85 1z m2038 8 c15 -8 40 -28 57 -45 34 -37 28 -60 -21 -73
-60 -17 -114 18 -114 75 0 54 27 69 78 43z m1712 -9 c0 -41 -31 -261 -46 -325
-30 -134 -77 -204 -112 -168 -11 11 -17 47 -22 133 -7 112 -14 153 -29 153 -3
0 -26 -28 -51 -63 -77 -106 -157 -193 -254 -276 -100 -85 -152 -153 -161 -210
-17 -101 -54 -144 -125 -144 -79 0 -120 44 -120 127 0 36 6 50 30 75 19 18 46
33 68 36 20 4 57 13 82 22 45 17 59 30 253 232 49 51 125 120 170 153 45 33
83 64 85 68 6 15 -35 23 -150 29 -87 5 -122 10 -133 22 -51 51 72 105 317 139
187 25 198 25 198 -3z m-3385 -91 c98 -45 160 -147 135 -221 -17 -50 -59 -76
-134 -82 -118 -10 -179 32 -191 131 -9 67 15 158 47 181 32 22 85 19 143 -9z
m1052 -10 c30 -36 46 -101 39 -161 -11 -97 -69 -139 -182 -132 -82 4 -134 29
-148 69 -22 61 52 195 133 238 52 29 127 22 158 -14z m-2584 -144 c28 -31 47
-89 47 -146 0 -48 -3 -57 -30 -79 -60 -51 -157 -48 -215 7 -39 37 -43 61 -20
110 45 94 173 158 218 108z m4141 -17 c64 -32 136 -104 136 -135 0 -35 -18
-59 -62 -81 -83 -43 -206 -35 -268 17 -26 22 -30 32 -30 72 1 55 20 115 47
144 25 28 102 21 177 -17z m-3328 -108 c49 -42 29 -149 -25 -132 -28 8 -81 81
-81 110 0 48 60 61 106 22z m2428 17 c31 -12 19 -67 -22 -112 -22 -23 -46 -42
-55 -42 -22 0 -37 31 -37 79 0 31 6 44 26 60 27 21 58 26 88 15z m-4101 -245
c33 -25 51 -88 42 -148 -15 -101 -39 -101 -90 1 -40 80 -44 119 -15 148 25 25
31 25 63 -1z m5827 1 c29 -29 25 -68 -15 -148 -51 -102 -75 -102 -90 -1 -9 60
9 123 42 148 32 26 38 26 63 1z m-4495 -11 c22 -6 56 -28 79 -50 36 -37 38
-42 33 -86 -12 -110 -166 -177 -284 -124 -88 41 -99 155 -21 228 45 42 114 54
193 32z m3182 -14 c56 -26 93 -71 93 -115 0 -71 -108 -150 -204 -150 -96 0
-158 52 -158 134 0 62 27 106 82 134 58 29 121 29 187 -3z m-2640 -7 c19 -15
43 -74 43 -107 0 -79 -76 -153 -134 -131 -79 30 -87 160 -14 226 37 34 72 38
105 12z m2041 6 c76 -53 66 -191 -19 -236 -40 -21 -66 -16 -96 20 -44 52 -42
128 4 183 41 48 75 58 111 33z m-3467 -4 c29 -16 61 -87 66 -149 6 -69 -9
-130 -43 -171 -23 -26 -32 -30 -77 -30 -55 0 -122 25 -146 53 -19 24 -10 102
19 162 13 27 45 70 70 97 47 49 73 58 111 38z m4966 -17 c47 -31 113 -162 113
-225 0 -62 -64 -108 -150 -108 -66 0 -87 12 -111 63 -45 100 -5 263 71 290 18
6 48 -1 77 -20z m-4734 -608 c30 -13 19 -48 -39 -119 -66 -82 -89 -126 -110
-206 -28 -108 4 -170 86 -170 66 0 85 -23 76 -89 -13 -96 6 -98 323 -30 238
51 292 57 326 35 17 -11 26 -25 25 -39 -4 -44 1 -55 28 -66 16 -7 40 -9 53 -6
17 4 33 -1 52 -15 24 -19 27 -28 25 -67 -1 -38 2 -49 22 -65 15 -13 32 -17 49
-13 97 21 79 -121 -37 -292 -89 -130 -252 -289 -353 -343 -72 -38 -131 -39
-236 -4 -47 16 -113 29 -170 33 -53 4 -98 12 -105 19 -8 8 -15 52 -19 110 -4
66 -14 121 -33 173 -45 130 -33 202 55 321 28 38 49 72 45 75 -3 4 -40 -4 -82
-17 -57 -18 -80 -21 -92 -13 -17 11 -18 15 -6 95 11 77 -28 119 -125 138 -64
12 -164 -1 -229 -30 -51 -23 -175 -139 -192 -181 -10 -23 -10 -35 0 -59 20
-49 290 -294 306 -278 2 3 0 18 -6 33 -15 40 -4 80 32 110 40 33 73 32 110 -5
42 -42 35 -87 -22 -145 -51 -52 -62 -89 -47 -160 18 -90 -16 -125 -125 -125
-55 0 -55 -16 1 -44 174 -89 175 -353 0 -441 -27 -14 -49 -30 -49 -35 0 -6 23
-10 50 -10 69 0 117 -22 126 -56 4 -14 2 -48 -4 -74 -15 -64 -2 -104 48 -155
57 -58 64 -103 22 -145 -37 -37 -70 -38 -110 -5 -36 30 -47 70 -32 110 6 15 8
30 6 33 -15 15 -275 -218 -302 -271 -9 -17 -13 -39 -9 -55 10 -39 123 -151
186 -183 102 -51 221 -58 301 -17 55 27 72 58 64 116 -12 80 -11 84 6 95 12 8
35 5 92 -13 42 -13 79 -21 82 -17 4 3 -17 37 -45 75 -88 119 -100 191 -55 321
19 52 29 107 33 173 4 58 11 102 19 110 7 7 52 15 105 19 57 4 123 17 170 33
105 35 164 34 236 -4 67 -36 173 -127 256 -220 194 -218 262 -440 128 -415
-44 8 -73 -29 -66 -84 5 -33 1 -41 -23 -60 -19 -15 -36 -20 -51 -16 -55 13
-85 -13 -87 -75 -1 -15 -11 -30 -28 -39 -33 -19 -116 -8 -343 43 -282 63 -311
60 -299 -35 9 -66 -10 -89 -76 -89 -82 0 -114 -62 -86 -170 21 -80 44 -124
110 -206 58 -71 69 -107 39 -119 -27 -11 -262 -19 -336 -11 -36 4 -73 13 -82
20 -22 16 -12 37 61 123 99 117 135 234 84 275 -55 45 -173 5 -290 -98 -142
-124 -140 -126 -140 114 0 208 -13 281 -53 306 -12 7 -51 16 -85 20 -114 11
-162 59 -162 164 0 110 41 184 198 351 56 60 102 112 102 115 0 4 -60 5 -132
3 -150 -5 -204 -19 -310 -83 -79 -47 -214 -183 -251 -251 -15 -29 -31 -75 -34
-103 -5 -45 -3 -55 24 -93 46 -64 50 -84 18 -99 -23 -10 -33 -9 -63 7 -74 40
-107 123 -100 250 5 93 27 149 86 224 78 99 137 272 113 334 -13 35 -32 34
-73 -2 -53 -46 -96 -64 -140 -58 -110 15 -161 125 -103 223 53 90 119 107 201
51 64 -44 78 -48 100 -32 14 10 18 25 17 66 -2 91 -33 157 -149 318 -34 47
-54 123 -54 200 0 114 34 189 102 226 30 16 40 17 63 7 32 -15 28 -35 -18 -99
-27 -38 -29 -48 -24 -93 3 -28 19 -74 34 -103 35 -66 181 -212 254 -255 104
-61 160 -75 307 -78 73 -2 132 1 130 5 -2 4 -48 56 -103 115 -152 163 -195
238 -195 342 0 110 49 160 166 171 119 11 134 49 134 334 0 229 -2 228 140
105 117 -103 235 -143 290 -98 51 41 15 157 -82 272 -93 110 -95 125 -21 141
46 10 351 5 376 -6z m4800 -8 c15 -10 27 -24 27 -31 0 -8 -28 -47 -62 -88
-139 -166 -149 -298 -23 -298 58 0 142 45 244 131 46 38 91 69 100 67 14 -3
17 -29 21 -213 8 -283 14 -296 139 -309 113 -11 161 -60 161 -164 0 -112 -38
-181 -195 -348 -55 -59 -102 -111 -104 -117 -2 -6 44 -8 130 -5 205 8 300 50
449 198 143 141 183 251 121 336 -41 57 -47 80 -21 94 46 25 106 -13 146 -90
42 -83 26 -262 -30 -341 -113 -158 -146 -232 -146 -328 0 -94 28 -97 123 -16
46 40 82 53 106 38 31 -18 65 -105 69 -174 8 -142 -74 -192 -188 -113 -89 61
-131 32 -110 -77 14 -73 49 -146 104 -219 79 -105 91 -138 91 -260 0 -83 -4
-112 -19 -140 -41 -78 -100 -114 -146 -90 -26 14 -20 37 21 94 39 54 39 104
-3 187 -39 79 -165 209 -256 263 -107 65 -160 79 -310 83 -75 2 -132 -1 -130
-5 1 -5 47 -56 101 -113 152 -161 197 -241 197 -351 0 -106 -48 -154 -167
-165 -118 -11 -133 -49 -133 -334 0 -229 2 -228 -140 -105 -117 103 -235 143
-290 98 -52 -42 -16 -156 88 -280 34 -41 62 -80 62 -88 0 -7 -12 -21 -26 -31
-23 -14 -59 -18 -235 -21 -114 -3 -219 -2 -233 2 -36 9 -32 30 11 63 132 100
199 199 222 325 10 55 1 116 -17 119 -4 1 -61 3 -127 4 -137 4 -185 16 -164
41 7 9 38 33 69 54 31 21 62 46 70 56 14 16 9 17 -95 11 -60 -4 -175 -21 -255
-37 -372 -78 -397 -78 -403 3 -4 50 -17 61 -78 62 -63 1 -94 30 -85 79 9 44
-16 76 -60 76 -58 0 -74 14 -74 65 0 30 11 64 36 112 101 194 414 523 498 523
31 0 142 -65 250 -148 125 -97 304 -272 340 -334 25 -42 26 -51 17 -81 -16
-47 -73 -111 -141 -157 -99 -67 -96 -69 63 -41 39 7 66 7 87 -1 l31 -10 -7
-72 c-6 -69 -5 -72 23 -97 46 -42 83 -52 185 -47 116 5 176 32 265 120 75 74
91 106 73 148 -20 49 -290 294 -306 278 -2 -3 0 -18 6 -33 15 -40 4 -80 -32
-110 -37 -31 -69 -32 -105 -1 -22 19 -28 32 -28 65 0 34 7 47 43 84 52 53 65
93 50 157 -6 26 -8 60 -4 74 9 34 57 56 126 56 27 0 50 4 50 10 0 5 -22 21
-49 35 -174 88 -174 352 0 440 27 14 49 30 49 35 0 6 -23 10 -50 10 -69 0
-117 22 -126 56 -4 14 -2 48 4 74 15 64 2 104 -50 157 -36 37 -43 50 -43 84 0
33 6 46 28 65 36 31 68 30 105 -1 36 -30 47 -70 32 -110 -6 -15 -8 -30 -6 -33
16 -16 286 229 306 278 18 43 1 76 -80 154 -81 79 -140 107 -237 113 -105 8
-157 -3 -200 -40 l-35 -31 6 -71 c6 -70 6 -72 -20 -84 -21 -9 -45 -8 -121 5
-52 8 -97 13 -100 10 -3 -2 16 -20 43 -38 79 -54 132 -107 155 -155 20 -42 21
-47 7 -76 -38 -80 -201 -242 -379 -378 -88 -67 -197 -129 -225 -129 -85 0
-420 355 -506 535 -34 73 -38 139 -9 155 11 5 35 10 55 10 44 0 69 31 60 75
-9 50 21 79 86 80 59 1 84 22 77 64 -7 34 25 61 71 61 41 -1 117 -14 332 -59
80 -17 195 -34 255 -38 104 -6 109 -5 95 11 -8 10 -39 35 -70 56 -31 21 -62
45 -69 54 -21 25 27 37 164 41 66 1 123 3 127 4 3 0 11 16 17 34 8 24 7 49 -3
98 -26 121 -86 211 -194 291 -58 43 -72 65 -51 80 8 5 106 8 235 6 189 -3 225
-6 247 -21z m-5133 -206 c5 -11 10 -37 10 -59 0 -53 -33 -85 -86 -80 -36 3
-39 6 -42 35 -3 26 5 41 39 78 46 49 63 55 79 26z m340 -33 c49 -34 76 -74 61
-91 -16 -20 -77 -28 -107 -15 -32 15 -57 62 -48 91 13 43 45 48 94 15z m4837
-22 c41 -38 46 -47 37 -63 -8 -13 -26 -19 -62 -21 -42 -2 -54 1 -71 19 -23 25
-28 78 -9 97 22 22 56 12 105 -32z m-362 10 c19 -28 10 -55 -27 -80 -29 -21
-166 -22 -193 -2 -18 13 -18 15 9 39 34 32 118 66 163 66 24 1 37 -6 48 -23z
m-4828 -358 c44 -42 24 -149 -26 -133 -50 16 -105 134 -68 148 30 13 72 6 94
-15z m5187 16 c25 -10 19 -57 -13 -102 -54 -73 -101 -63 -101 22 0 66 54 103
114 80z m-3636 -370 c30 -35 30 -87 -3 -119 -54 -55 -155 -16 -155 59 0 86
101 125 158 60z m2050 0 c49 -56 12 -144 -62 -144 -49 0 -65 8 -82 42 -50 96
73 183 144 102z m-4378 -33 c14 -27 12 -93 -4 -114 -18 -23 -65 -36 -94 -26
-36 14 -29 58 19 113 44 50 63 56 79 27z m6757 -55 c53 -50 53 -70 -2 -85 -66
-18 -114 15 -115 80 0 43 5 49 42 49 21 0 43 -13 75 -44z m-1248 -263 c11 -10
24 -31 27 -48 8 -44 -39 -86 -103 -92 -67 -7 -103 9 -103 45 0 79 121 143 179
95z m184 -61 c8 -20 23 -73 32 -116 35 -158 1 -406 -62 -456 -31 -24 -44 -16
-73 40 -35 70 -124 130 -190 130 -57 0 -121 22 -151 52 -23 24 -29 38 -29 73
0 73 71 125 171 125 55 0 155 55 189 104 75 107 87 113 113 48z m-4624 -37
c40 -70 84 -103 157 -116 86 -15 124 -53 124 -122 0 -76 -52 -127 -129 -127
-44 0 -120 -57 -166 -125 -69 -101 -92 -85 -130 89 -35 158 -1 406 62 456 32
25 41 19 82 -55z m966 -66 c47 -43 105 -146 105 -186 0 -78 -138 -233 -208
-233 -33 0 -125 93 -153 153 -40 89 -11 188 80 270 35 31 48 37 86 37 39 0 52
-6 90 -41z m2684 -4 c56 -52 101 -135 101 -186 0 -46 -41 -110 -114 -176 -78
-72 -103 -72 -172 1 -121 129 -123 235 -4 358 43 44 50 48 94 48 42 0 52 -5
95 -45z m792 -401 c25 -24 29 -35 25 -59 -12 -59 -74 -82 -136 -50 -65 34 -93
111 -47 133 12 7 46 10 75 9 42 -3 59 -10 83 -33z m-5551 -284 c5 0 18 -10 30
-22 33 -36 23 -138 -15 -138 -24 0 -95 90 -95 122 0 30 30 52 58 42 8 -2 18
-4 22 -4z m6784 0 c40 -15 35 -57 -15 -114 -22 -25 -47 -46 -54 -46 -20 0 -35
33 -35 77 1 51 18 72 77 92 1 1 13 -3 27 -9z m-4419 -55 c33 -32 33 -84 1
-122 -53 -61 -156 -21 -156 61 0 77 100 117 155 61z m2050 0 c33 -32 33 -84 3
-119 -71 -81 -194 6 -144 102 18 35 28 40 79 41 28 1 45 -6 62 -24z m-3585
-354 c5 -11 10 -37 10 -57 0 -64 -55 -101 -114 -78 -35 13 -4 103 47 139 29
20 44 19 57 -4z m5168 -40 c74 -54 63 -101 -24 -101 -34 0 -47 5 -63 26 -20
26 -28 83 -14 97 15 16 63 5 101 -22z m-5208 -341 c5 0 18 -10 30 -22 33 -36
23 -138 -15 -138 -24 0 -95 90 -95 122 0 30 30 52 58 42 8 -2 18 -4 22 -4z
m394 0 c30 -11 33 -37 11 -79 -17 -34 -73 -83 -89 -78 -6 2 -17 21 -24 42 -17
51 -1 92 42 111 17 7 32 13 33 14 1 0 13 -4 27 -10z m4440 -25 c14 -10 29 -28
32 -41 9 -33 -9 -79 -32 -82 -25 -3 -207 115 -201 131 9 29 153 23 201 -8z
m394 -13 c3 -25 -5 -40 -39 -77 -23 -25 -48 -45 -55 -45 -32 0 -47 97 -20 132
18 24 56 36 86 28 19 -5 26 -14 28 -38z m-5055 -622 c51 -60 48 -157 -7 -215
-54 -57 -110 -44 -185 41 -96 109 -47 204 106 204 56 0 63 -3 86 -30z m4981
16 c86 -36 88 -124 4 -202 -67 -64 -132 -80 -167 -43 -41 45 -64 156 -40 200
28 53 130 76 203 45z m-491 -81 c62 -26 191 -131 303 -248 116 -120 252 -283
276 -330 24 -48 40 -12 48 111 8 124 23 167 60 167 41 0 61 -50 70 -173 9
-111 21 -176 46 -250 17 -53 18 -96 1 -110 -12 -11 -122 4 -335 43 -91 17
-176 54 -186 81 -4 11 1 25 13 37 16 17 39 21 138 27 65 4 127 11 137 17 16 9
14 11 -14 23 -18 8 -112 90 -209 184 -197 190 -294 263 -367 277 -65 12 -94
41 -94 94 0 22 5 46 12 53 16 16 58 15 101 -3z m-3616 -6 c49 -18 73 -48 73
-91 0 -53 -13 -74 -60 -98 -79 -40 -212 -18 -254 42 -37 53 -1 121 76 145 44
15 130 16 165 2z m3169 -5 c44 -21 64 -50 64 -90 0 -67 -68 -114 -165 -114
-69 0 -113 18 -148 59 -34 41 -34 63 1 101 50 56 176 78 248 44z m-3716 -13
c0 -67 -323 -392 -565 -568 -45 -33 -23 -44 102 -53 125 -8 168 -23 168 -60 0
-40 -50 -61 -173 -71 -95 -7 -160 -21 -298 -60 -72 -21 -91 6 -59 88 27 71 45
159 54 272 12 128 31 176 71 176 37 0 53 -44 60 -166 7 -102 14 -133 29 -127
4 2 55 61 112 133 225 281 499 520 499 436z m1075 -16 c66 -65 -10 -180 -95
-145 -96 40 -73 170 30 170 30 0 47 -6 65 -25z m2050 0 c70 -69 -16 -186 -103
-141 -55 28 -66 102 -22 146 29 29 94 27 125 -5z m-3907 -27 c18 -22 23 -81 9
-108 -28 -54 -111 -64 -123 -15 -7 28 23 83 63 115 30 23 37 24 51 8z m5800
-48 c69 -49 74 -78 17 -100 -73 -28 -150 45 -115 109 15 29 50 26 98 -9z
m-4970 -196 c34 -23 52 -67 52 -124 0 -112 -74 -170 -158 -126 -31 16 -84 71
-101 103 -18 35 -14 98 8 117 47 42 158 59 199 30z m833 -5 c42 -79 -25 -164
-105 -133 -36 14 -5 97 51 139 26 20 41 18 54 -6z m3388 -9 c73 -37 79 -81 20
-145 -80 -87 -229 -134 -272 -87 -27 30 -47 89 -47 141 0 43 4 53 31 75 17 14
43 29 57 32 15 3 32 8 37 10 25 9 138 -7 174 -26z m-981 -29 c74 -54 63 -101
-24 -101 -34 0 -47 5 -63 26 -20 26 -28 83 -14 97 15 16 63 5 101 -22z m-1606
-78 c46 -27 56 -60 35 -126 -31 -97 -101 -165 -180 -174 -80 -9 -128 33 -142
126 -13 90 25 170 91 191 46 15 158 5 196 -17z m932 3 c46 -30 61 -64 61 -141
0 -80 -26 -134 -75 -160 -85 -44 -174 10 -231 140 -41 92 -25 153 45 175 47
14 170 6 200 -14z m-1770 -270 c47 -20 64 -84 35 -137 -15 -28 -28 -24 -76 26
-60 63 -59 110 5 124 1 1 18 -5 36 -13z m390 4 c42 -16 35 -60 -18 -116 -25
-25 -51 -44 -58 -42 -23 8 -39 73 -26 109 9 25 43 52 75 59 1 0 13 -4 27 -10z
m1683 -16 c29 -18 38 -64 19 -108 -8 -20 -19 -36 -25 -36 -16 0 -71 51 -86 81
-39 74 15 111 92 63z m374 16 c41 -23 3 -116 -62 -150 -27 -15 -49 13 -49 63
0 50 6 61 45 81 36 19 40 19 66 6z m-3390 -80 c27 -15 24 -51 -11 -98 -31 -43
-64 -67 -80 -57 -5 3 -14 23 -20 44 -13 49 0 85 37 105 34 18 48 19 74 6z
m4421 -16 c15 -8 32 -24 39 -35 13 -26 3 -88 -16 -95 -16 -6 -59 15 -140 69
-64 43 -78 58 -67 69 22 20 138 16 184 -8z m-2267 -1189 c14 -13 25 -36 25
-50 0 -34 -50 -85 -84 -85 -66 0 -104 92 -56 140 29 29 84 27 115 -5z"/>
<path d="M5945 9810 c-64 -26 -92 -110 -56 -168 59 -92 196 -59 208 51 5 44 3
49 -35 87 -41 41 -72 49 -117 30z"/>
<path d="M6196 9613 c-27 -69 209 -302 257 -254 25 25 -70 157 -165 226 -65
49 -82 54 -92 28z"/>
<path d="M5705 9601 c-49 -30 -153 -141 -176 -187 -24 -50 -18 -68 20 -59 84
20 231 175 231 244 0 27 -34 28 -75 2z"/>
<path d="M5904 9391 c-43 -20 -84 -63 -84 -90 0 -49 82 -102 160 -103 67 0
114 18 146 54 40 49 20 109 -48 144 -38 20 -125 17 -174 -5z"/>
<path d="M5524 9255 c-16 -40 143 -233 289 -351 99 -79 155 -109 189 -101 114
29 447 365 448 451 0 15 -5 17 -27 11 -42 -10 -81 -41 -168 -130 -103 -105
-169 -139 -270 -139 -102 0 -164 34 -280 151 -50 51 -107 99 -128 108 -45 19
-46 19 -53 0z"/>
<path d="M5975 8358 c-8 -13 -29 -58 -46 -101 -53 -140 -50 -312 9 -487 11
-32 25 -55 33 -55 21 0 86 139 98 210 18 101 13 201 -14 313 -35 146 -48 165
-80 120z"/>
<path d="M5650 8305 c0 -18 47 -126 67 -152 37 -51 71 -41 58 17 -9 42 -125
167 -125 135z"/>
<path d="M5472 8267 c-43 -45 -49 -83 -22 -138 59 -114 264 -259 295 -208 15
24 -7 59 -60 93 -83 56 -135 135 -135 208 0 84 -26 99 -78 45z"/>
<path d="M6435 8290 c-4 -6 -9 -36 -12 -68 -3 -31 -14 -73 -24 -93 -19 -38
-82 -99 -102 -99 -18 0 -64 -46 -72 -71 -5 -13 -1 -27 8 -37 27 -27 98 9 188
95 77 73 119 138 119 181 0 25 -65 102 -86 102 -7 0 -16 -5 -19 -10z"/>
<path d="M6252 8272 c-40 -31 -62 -74 -62 -124 0 -26 5 -50 12 -54 28 -18 111
138 95 180 -8 20 -16 20 -45 -2z"/>
<path d="M5206 7923 c-49 -49 198 -305 251 -261 28 23 -56 154 -135 211 -49
35 -106 60 -116 50z"/>
<path d="M6684 7890 c-98 -55 -207 -201 -175 -233 28 -28 212 119 256 203 33
64 0 77 -81 30z"/>
<path d="M4181 7797 c-23 -28 30 -137 79 -162 60 -31 100 -14 100 41 0 43 -33
82 -94 110 -59 28 -70 29 -85 11z"/>
<path d="M7701 7784 c-56 -29 -91 -72 -91 -114 0 -60 72 -70 124 -17 43 42 74
121 56 142 -17 21 -28 19 -89 -11z"/>
<path d="M4768 7663 c3 -156 22 -225 98 -373 61 -117 149 -242 269 -379 158
-182 193 -187 459 -63 212 98 286 149 286 199 0 13 -16 47 -35 76 -50 74 -48
114 10 203 54 82 69 130 62 205 -12 141 -122 236 -242 209 -26 -6 -59 -17 -75
-25 -28 -14 -90 -79 -90 -94 0 -17 -69 -41 -117 -41 -27 0 -75 5 -105 11 -84
17 -139 -16 -124 -74 10 -41 40 -50 166 -51 104 -1 118 -3 148 -24 45 -32 69
-85 87 -188 27 -157 17 -214 -42 -229 -15 -3 -94 1 -175 11 l-149 17 -19 38
c-11 21 -23 70 -26 111 -12 143 -85 271 -264 464 -61 65 -114 120 -118 122 -4
1 -6 -55 -4 -125z m1011 -84 c50 -18 75 -83 50 -131 -14 -26 -67 -48 -102 -41
-54 10 -84 83 -56 134 8 16 33 32 75 49 1 0 15 -5 33 -11z"/>
<path d="M7081 7667 c-179 -195 -245 -311 -262 -457 -5 -47 -17 -101 -27 -120
l-17 -35 -145 -18 c-231 -30 -252 -16 -232 153 27 238 82 293 275 277 80 -7
123 8 133 47 16 63 -38 96 -127 77 -62 -14 -140 -14 -173 -1 -14 5 -38 27 -53
49 -56 78 -163 122 -246 100 -60 -16 -121 -80 -141 -148 -30 -101 -16 -167 57
-274 60 -88 61 -117 7 -186 -80 -101 -54 -134 222 -275 161 -83 237 -105 296
-88 102 31 331 288 455 512 20 36 50 106 67 157 27 82 31 107 33 223 1 71 0
130 -3 130 -3 0 -56 -56 -119 -123z m-786 -120 c23 -33 19 -90 -7 -114 -33
-29 -57 -35 -95 -22 -34 11 -63 51 -63 88 0 27 46 79 73 83 32 5 75 -11 92
-35z"/>
<path d="M4456 7714 c-3 -9 -6 -32 -6 -52 0 -20 -6 -48 -13 -62 -19 -37 -74
-70 -118 -70 -47 0 -69 -8 -69 -26 0 -7 28 -43 62 -79 75 -81 96 -83 116 -12
18 63 73 119 141 142 36 11 51 22 51 34 0 21 -122 141 -143 141 -8 0 -18 -7
-21 -16z"/>
<path d="M7416 7669 c-36 -34 -66 -69 -66 -79 0 -13 14 -23 48 -34 26 -9 58
-24 71 -32 31 -22 61 -90 61 -141 0 -63 27 -58 109 22 75 73 76 89 2 111 -76
22 -111 67 -120 154 -4 40 -10 56 -23 58 -9 2 -45 -23 -82 -59z"/>
<path d="M4547 7432 c-26 -28 -21 -78 8 -108 27 -27 173 -99 182 -90 7 7 -15
72 -44 129 -37 75 -110 109 -146 69z"/>
<path d="M7334 7431 c-18 -11 -42 -41 -58 -72 -45 -91 -30 -115 52 -84 63 24
112 74 112 113 0 59 -48 78 -106 43z"/>
<path d="M6658 7360 c-63 -18 -148 -113 -148 -166 0 -76 122 -39 181 55 48 75
32 129 -33 111z"/>
<path d="M5266 7344 c-68 -67 88 -243 169 -190 47 31 45 83 -7 141 -54 62
-127 84 -162 49z"/>
<path d="M5864 6850 c-86 -30 -285 -137 -355 -189 -149 -113 -251 -250 -341
-456 -81 -188 -76 -253 38 -493 63 -135 120 -217 212 -308 79 -79 140 -121
282 -196 157 -83 215 -102 300 -96 61 5 88 14 225 81 167 82 219 114 307 189
109 93 204 243 294 463 24 59 29 84 29 160 l0 90 -76 155 c-147 301 -277 427
-569 553 -58 25 -123 50 -145 56 -58 16 -143 12 -201 -9z m283 -160 c202 -48
324 -129 432 -284 110 -160 150 -409 96 -611 -47 -178 -176 -340 -332 -418
-92 -47 -250 -106 -315 -118 -53 -10 -73 -9 -127 5 -88 23 -268 100 -338 145
-121 78 -228 234 -270 391 -24 90 -23 292 1 380 25 91 75 195 129 266 154 203
462 307 724 244z"/>
<path d="M5858 6556 c-193 -68 -338 -205 -422 -401 -27 -61 -31 -82 -31 -160
0 -78 4 -99 31 -160 79 -182 210 -313 388 -388 141 -60 263 -44 428 53 175
104 318 327 318 495 0 168 -143 391 -318 495 -153 91 -269 110 -394 66z m243
-62 c213 -63 399 -292 399 -493 0 -174 -123 -369 -285 -453 -174 -90 -287 -90
-460 0 -268 140 -353 473 -186 729 119 183 340 273 532 217z"/>
<path d="M5949 6420 c-126 -38 -290 -183 -353 -311 -49 -98 -49 -130 0 -228
73 -148 279 -314 389 -314 95 0 281 137 364 267 57 90 74 147 60 199 -30 115
-175 281 -304 348 -79 41 -118 51 -156 39z m148 -150 c113 -56 194 -176 194
-284 0 -67 -34 -138 -98 -207 -120 -128 -263 -122 -404 18 -137 134 -147 283
-27 400 108 106 220 130 335 73z"/>
<path d="M5954 6214 c-46 -23 -179 -148 -193 -183 -18 -42 5 -85 98 -181 96
-100 114 -105 186 -56 69 48 162 146 171 180 5 20 -1 37 -22 69 -55 84 -167
188 -201 187 -4 0 -22 -7 -39 -16z"/>
<path d="M5264 5191 c-57 -42 -193 -185 -259 -271 -104 -137 -190 -299 -220
-418 -16 -60 -27 -302 -14 -302 12 0 232 248 274 310 62 88 101 189 109 280 4
41 15 91 25 110 l18 35 144 18 c204 26 238 13 239 -89 0 -71 -30 -216 -53
-258 -40 -71 -62 -81 -195 -82 -128 -1 -158 -10 -168 -51 -15 -58 40 -91 124
-74 30 6 78 11 105 11 48 0 117 -24 117 -41 0 -15 62 -80 90 -94 16 -8 49 -19
75 -25 120 -27 230 68 242 209 7 75 -8 123 -62 205 -58 89 -61 131 -10 202 69
97 44 131 -170 234 -261 126 -340 144 -411 91z m521 -615 c54 -23 69 -70 40
-125 -29 -56 -125 -58 -154 -3 -27 50 2 125 52 135 12 2 23 5 25 6 1 0 18 -5
37 -13z"/>
<path d="M6496 5190 c-120 -45 -337 -154 -374 -188 -42 -39 -41 -69 4 -135 32
-47 36 -57 32 -103 -3 -38 -12 -62 -35 -90 -70 -90 -87 -169 -58 -269 21 -74
80 -138 142 -154 83 -22 190 22 246 100 15 22 39 44 53 49 33 13 111 13 173
-1 90 -19 146 17 126 80 -11 37 -54 51 -132 44 -193 -16 -248 39 -275 277 -20
169 1 183 232 153 l145 -18 17 -35 c10 -19 21 -71 27 -115 17 -150 80 -261
261 -459 63 -69 117 -126 120 -126 3 0 4 57 3 127 -3 191 -44 309 -178 508
-98 147 -272 337 -342 374 -36 18 -103 12 -187 -19z m-208 -632 c31 -30 30
-91 -3 -123 -23 -24 -39 -29 -80 -26 -26 3 -75 55 -75 81 0 83 96 125 158 68z"/>
<path d="M5390 4833 c-93 -33 -178 -173 -122 -201 73 -37 236 140 180 196 -12
12 -32 14 -58 5z"/>
<path d="M6530 4820 c-25 -25 -25 -43 -1 -95 40 -89 133 -133 181 -85 49 49 1
146 -92 185 -49 20 -64 19 -88 -5z"/>
<path d="M4622 4704 c-52 -26 -92 -74 -92 -111 0 -28 31 -53 65 -53 54 0 141
124 122 174 -9 23 -35 20 -95 -10z"/>
<path d="M7257 4724 c-13 -13 -8 -39 19 -93 39 -78 110 -114 148 -75 38 38 3
114 -68 148 -43 20 -89 30 -99 20z"/>
<path d="M4335 4589 c-36 -34 -65 -68 -65 -76 0 -8 17 -21 38 -29 106 -41 131
-70 141 -163 5 -42 10 -57 24 -59 22 -4 147 114 147 139 0 11 -13 22 -37 29
-93 30 -143 93 -143 178 0 60 -25 56 -105 -19z"/>
<path d="M7537 4643 c-4 -3 -7 -24 -7 -46 0 -49 -24 -101 -58 -123 -14 -9 -51
-20 -81 -23 -77 -8 -77 -24 3 -108 74 -78 90 -78 112 -2 17 59 74 116 133 133
76 22 76 37 0 111 -63 61 -86 74 -102 58z"/>
<path d="M4258 4354 c-51 -27 -101 -141 -73 -164 21 -18 100 13 143 56 34 34
44 88 20 112 -16 16 -57 15 -90 -4z"/>
<path d="M7622 4358 c-22 -22 -14 -86 13 -114 27 -27 165 -95 177 -88 9 6 -10
71 -38 127 -36 70 -117 110 -152 75z"/>
<path d="M5404 4321 c-96 -43 -233 -219 -198 -254 22 -21 147 62 199 132 77
107 77 157 -1 122z"/>
<path d="M6510 4319 c0 -61 107 -191 192 -233 90 -45 97 -3 16 102 -86 111
-208 188 -208 131z"/>
<path d="M5960 4233 c-46 -72 -64 -144 -64 -253 0 -97 30 -237 59 -277 13 -17
14 -17 33 0 65 59 105 229 84 361 -14 90 -52 208 -69 214 -7 2 -26 -18 -43
-45z"/>
<path d="M5662 4070 c-80 -36 -212 -189 -212 -245 0 -23 26 -29 62 -14 43 18
163 133 194 185 25 42 29 84 9 90 -5 2 -29 -5 -53 -16z"/>
<path d="M6247 4083 c-27 -27 21 -112 110 -194 130 -120 212 -112 132 13 -62
95 -214 210 -242 181z"/>
<path d="M5896 3226 c-97 -65 -171 -131 -257 -230 -90 -103 -130 -169 -112
-187 21 -21 95 26 181 117 190 199 361 200 550 5 84 -85 124 -116 165 -126
129 -33 -208 355 -390 449 -47 24 -65 20 -137 -28z"/>
<path d="M5889 2833 c-92 -47 -91 -111 3 -161 91 -50 236 -11 253 67 22 102
-129 158 -256 94z"/>
<path d="M5514 2706 c-9 -22 37 -96 100 -160 120 -123 211 -132 141 -13 -64
110 -222 223 -241 173z"/>
<path d="M6382 2693 c-79 -39 -192 -168 -192 -219 0 -35 17 -38 64 -10 91 53
206 180 206 228 0 23 -33 24 -78 1z"/>
<path d="M5924 2461 c-65 -40 -70 -126 -8 -180 55 -49 136 -35 169 29 54 105
-60 213 -161 151z"/>
<path d="M4171 6954 c-51 -22 -116 -79 -134 -117 -23 -49 -9 -89 63 -174 71
-85 118 -117 158 -108 34 7 134 89 180 147 42 54 44 107 3 161 -73 96 -177
132 -270 91z m144 -145 c67 -59 34 -119 -65 -119 -108 0 -136 74 -50 133 37
26 75 21 115 -14z"/>
<path d="M2940 6766 c0 -2 42 -39 93 -81 207 -175 272 -255 207 -255 -19 0
-153 136 -250 254 -59 72 -65 77 -68 53 -5 -44 37 -108 132 -203 98 -97 191
-154 253 -154 79 0 49 63 -102 216 -109 110 -197 174 -242 174 -13 0 -23 -2
-23 -4z"/>
<path d="M3860 6641 c0 -10 20 -46 44 -78 42 -58 318 -355 335 -361 4 -1 83
71 174 160 188 185 264 288 212 288 -43 0 -123 -60 -290 -215 l-97 -89 -111
119 c-145 154 -267 234 -267 176z"/>
<path d="M3202 6223 c-12 -32 -8 -151 6 -165 36 -35 56 78 28 147 -17 39 -23
43 -34 18z"/>
<path d="M2765 6105 c-5 -2 -22 -6 -37 -9 -14 -3 -40 -18 -57 -32 -26 -21 -31
-33 -31 -68 0 -69 51 -105 163 -113 85 -6 144 7 187 43 25 21 30 33 30 69 0
36 -5 48 -30 69 -17 14 -47 30 -68 36 -34 9 -134 13 -157 5z"/>
<path d="M3195 5874 c-7 -52 2 -121 17 -130 33 -21 50 79 24 141 -20 47 -32
44 -41 -11z"/>
<path d="M4091 5638 c-155 -163 -231 -259 -231 -289 0 -58 122 22 267 176
l111 119 97 -89 c167 -155 247 -215 290 -215 51 0 -24 102 -212 288 -91 89
-168 162 -171 162 -4 0 -72 -68 -151 -152z"/>
<path d="M3264 5591 c-136 -49 -326 -220 -350 -315 -5 -20 0 -35 20 -61 15
-19 33 -35 40 -35 26 0 106 72 226 202 187 203 204 259 64 209z m-26 -73 c-25
-47 -247 -278 -266 -278 -19 0 -14 29 10 63 70 101 231 257 264 257 12 0 11
-8 -8 -42z"/>
<path d="M4190 5416 c-35 -24 -112 -109 -141 -156 -40 -63 -26 -117 46 -175
124 -102 248 -85 349 48 34 45 35 99 1 147 -28 41 -121 124 -163 146 -37 19
-52 18 -92 -10z m140 -134 c28 -13 36 -24 38 -50 3 -27 -4 -40 -36 -73 -34
-34 -46 -39 -83 -39 -24 0 -51 6 -59 13 -33 26 -60 71 -60 98 0 61 120 91 200
51z"/>
<path d="M7642 6955 c-48 -21 -110 -72 -127 -106 -33 -62 -7 -123 97 -231 64
-66 92 -76 140 -54 45 22 160 132 183 175 23 46 9 94 -45 149 -74 77 -167 102
-248 67z m133 -135 c35 -22 58 -61 49 -85 -10 -24 -58 -45 -104 -45 -98 0
-131 61 -65 119 41 36 74 39 120 11z"/>
<path d="M9010 6739 c-64 -37 -266 -237 -294 -290 -69 -132 137 -65 298 96
154 154 151 283 -4 194z m84 3 c21 -35 -253 -324 -294 -310 -21 7 68 123 169
221 97 94 114 106 125 89z"/>
<path d="M7330 6646 c0 -30 87 -142 221 -283 78 -81 146 -149 153 -151 11 -2
238 188 329 276 52 51 107 127 107 149 0 24 -55 14 -114 -22 -69 -42 -94 -62
-221 -179 l-96 -90 -110 116 c-139 149 -269 237 -269 184z"/>
<path d="M8807 6233 c-13 -22 -11 -152 3 -173 9 -13 12 -12 25 4 20 26 19 109
0 146 -16 31 -21 35 -28 23z"/>
<path d="M9135 6101 c-100 -25 -138 -109 -77 -171 67 -66 245 -68 322 -4 40
34 43 98 6 133 -45 42 -165 62 -251 42z"/>
<path d="M8805 5909 c-11 -17 -8 -150 3 -161 21 -21 42 11 42 62 0 75 -26 131
-45 99z"/>
<path d="M7552 5627 c-138 -146 -222 -253 -222 -283 0 -53 129 35 269 184
l110 116 96 -90 c127 -117 152 -137 221 -179 56 -34 114 -46 114 -24 0 18 -21
52 -64 103 -45 55 -354 326 -371 326 -5 0 -74 -69 -153 -153z"/>
<path d="M8703 5594 c-11 -30 30 -87 147 -204 121 -121 198 -174 248 -168 78
9 0 162 -142 276 -115 94 -236 139 -253 96z m325 -237 c50 -48 72 -77 70 -91
-5 -32 -24 -29 -69 11 -40 36 -255 282 -274 313 -13 22 187 -149 273 -233z"/>
<path d="M7666 5421 c-37 -25 -100 -93 -137 -150 -47 -73 -35 -131 40 -190
111 -88 223 -81 321 21 54 54 68 103 45 149 -22 43 -136 152 -180 173 -42 20
-54 20 -89 -3z m134 -139 c28 -13 36 -24 38 -50 3 -27 -4 -40 -36 -73 -34 -34
-46 -39 -84 -39 -35 0 -49 5 -70 28 -56 60 -60 109 -10 136 37 21 119 20 162
-2z"/>
<path d="M8061 6004 c-50 -21 -27 -37 57 -38 80 0 116 16 85 40 -24 18 -100
17 -142 -2z"/>
<path d="M4589 6051 c-16 -16 -29 -39 -29 -50 0 -50 41 -91 91 -91 30 0 79 53
79 85 0 35 -50 85 -85 85 -16 0 -38 -12 -56 -29z"/>
<path d="M7269 6051 c-17 -18 -29 -40 -29 -56 0 -32 50 -85 80 -85 49 0 89 38
89 85 0 34 -14 56 -46 73 -35 19 -63 14 -94 -17z"/>
</g>
</svg>
