<?xml version="1.0" standalone="no"?>
<!DOCTYPE svg PUBLIC "-//W3C//DTD SVG 20010904//EN"
 "http://www.w3.org/TR/2001/REC-SVG-20010904/DTD/svg10.dtd">
<svg version="1.0" xmlns="http://www.w3.org/2000/svg"
 width="515.000000pt" height="640.000000pt" viewBox="0 0 515.000000 640.000000"
 preserveAspectRatio="xMidYMid meet">

<g transform="translate(0.000000,640.000000) scale(0.100000,-0.100000)"
fill="#000000" stroke="none">
<path d="M1670 6374 c-311 -34 -684 -92 -757 -117 -61 -22 -64 -24 -142 -132
l-79 -110 378 -3 c208 -1 553 -1 767 0 388 3 388 3 345 22 -58 25 -80 55 -164
221 -70 139 -74 145 -103 144 -16 -1 -127 -12 -245 -25z"/>
<path d="M651 5959 c-67 -72 -68 -67 60 -195 l115 -115 130 134 c72 73 136
137 143 141 9 6 57 -36 155 -133 l143 -142 127 133 c71 73 135 137 143 142 12
6 49 -25 158 -134 l142 -142 134 141 c74 78 138 141 144 141 5 0 73 -63 151
-141 l141 -141 128 136 c71 74 135 138 144 141 10 4 60 -39 156 -135 l142
-142 109 116 c60 64 110 120 112 124 1 5 -98 18 -220 31 -123 12 -237 25 -255
28 -28 5 -39 -2 -102 -61 -39 -36 -76 -66 -82 -66 -7 0 -35 15 -63 33 -28 19
-103 56 -166 83 l-115 49 -823 3 -823 3 -28 -32z"/>
<path d="M980 5765 l-125 -125 52 0 c51 0 52 0 114 70 34 38 69 72 78 75 10 4
41 -20 91 -70 74 -73 79 -76 118 -73 l41 3 -115 123 c-64 67 -119 122 -123
122 -3 0 -62 -56 -131 -125z"/>
<path d="M1550 5765 l-125 -125 52 0 c51 0 52 1 109 66 87 99 83 99 173 10 72
-71 79 -76 120 -76 l44 0 -115 122 c-63 67 -119 123 -124 125 -5 2 -65 -53
-134 -122z"/>
<path d="M2120 5765 l-125 -125 49 0 c49 0 51 1 119 75 39 41 75 75 81 75 6 0
45 -34 86 -75 70 -70 77 -75 118 -75 l44 0 -118 125 c-64 69 -120 125 -123
125 -4 0 -62 -56 -131 -125z"/>
<path d="M2690 5765 l-125 -125 49 0 c47 0 50 2 119 75 38 41 75 75 81 75 6 0
45 -34 86 -75 70 -70 77 -75 118 -75 l44 0 -118 125 c-64 69 -120 125 -123
125 -4 0 -62 -56 -131 -125z"/>
<path d="M3260 5765 l-125 -125 47 0 c46 0 50 2 119 75 40 41 77 75 83 75 6 0
45 -34 86 -75 70 -70 77 -75 118 -75 l44 0 -118 125 c-65 69 -120 125 -123
125 -4 0 -62 -56 -131 -125z"/>
<path d="M3450 5881 c0 -4 51 -57 113 -119 l112 -112 58 58 c51 51 57 62 51
86 -10 41 -38 53 -159 70 -161 22 -175 23 -175 17z"/>
<path d="M552 5831 l-21 -29 82 -81 c77 -76 85 -81 126 -81 l43 0 -80 88 c-44
48 -91 97 -104 109 l-24 23 -22 -29z"/>
<path d="M480 5695 l-54 -55 107 0 c59 0 107 4 107 8 0 8 -92 102 -101 102 -2
0 -29 -25 -59 -55z"/>
<path d="M1050 5695 l-54 -55 108 0 c102 0 108 1 95 18 -22 29 -83 92 -89 92
-3 0 -30 -25 -60 -55z"/>
<path d="M1620 5695 l-54 -55 107 0 c59 0 107 4 107 8 0 8 -92 102 -101 102
-2 0 -29 -25 -59 -55z"/>
<path d="M2189 5694 l-53 -54 108 0 c120 0 117 -4 57 63 -46 51 -53 51 -112
-9z"/>
<path d="M2760 5695 l-54 -55 107 0 c59 0 107 4 107 8 0 8 -92 102 -101 102
-2 0 -29 -25 -59 -55z"/>
<path d="M3330 5695 l-54 -55 107 0 c59 0 107 4 107 8 0 8 -92 102 -101 102
-2 0 -29 -25 -59 -55z"/>
<path d="M3755 5690 l-49 -50 46 0 c68 0 92 29 65 78 -13 22 -13 22 -62 -28z"/>
<path d="M367 5585 l-18 -25 1765 0 1765 0 -8 23 -8 22 -1739 2 -1739 2 -18
-24z"/>
<path d="M270 5453 c-78 -108 -76 -102 -32 -96 31 4 81 -13 307 -108 149 -62
277 -112 285 -111 8 1 134 51 278 112 145 60 274 110 287 110 12 0 142 -49
288 -110 146 -60 274 -110 284 -110 10 0 137 50 283 111 146 61 274 111 285
111 11 0 139 -50 285 -111 146 -61 274 -111 285 -111 11 0 143 52 294 114 235
98 278 113 300 104 14 -5 86 -34 159 -65 73 -30 136 -53 139 -50 3 4 -19 68
-50 144 l-55 138 -1783 2 -1784 3 -55 -77z"/>
<path d="M203 5316 c-44 -21 -83 -62 -127 -133 -8 -14 -1 -12 101 31 34 14 69
26 77 26 9 0 141 -52 294 -115 l278 -116 277 116 c152 63 284 115 292 115 8 0
140 -52 293 -115 l278 -116 277 116 c152 63 284 115 292 115 8 0 140 -52 292
-115 l277 -116 278 116 c153 63 285 115 293 115 8 0 97 -34 196 -76 100 -41
183 -73 185 -71 3 2 -4 26 -14 52 l-19 48 -164 68 c-90 38 -173 69 -185 69
-11 0 -139 -49 -284 -110 -145 -61 -273 -110 -286 -110 -12 0 -141 50 -286
111 -144 61 -272 111 -283 111 -11 -1 -139 -50 -284 -111 -145 -61 -274 -111
-286 -111 -12 0 -140 50 -285 110 -145 61 -273 110 -284 110 -12 0 -140 -50
-285 -110 -145 -61 -274 -110 -286 -110 -12 0 -125 43 -251 96 -358 150 -313
136 -371 110z"/>
<path d="M135 5166 c-79 -34 -104 -50 -118 -74 -18 -31 -18 -31 24 -152 l42
-120 2043 0 c1124 0 2044 2 2044 4 0 6 -88 217 -92 221 -7 8 -393 165 -403
165 -7 0 -136 -52 -288 -115 -153 -63 -280 -115 -282 -115 -3 0 -129 52 -281
115 -152 63 -282 115 -289 115 -6 0 -136 -52 -288 -115 -152 -63 -279 -115
-282 -115 -3 0 -129 52 -281 115 -152 63 -282 115 -288 115 -7 0 -131 -49
-274 -109 -144 -60 -271 -112 -281 -116 -12 -4 -120 36 -296 110 -152 63 -285
115 -294 114 -9 0 -61 -20 -116 -43z"/>
<path d="M98 4794 c-4 -3 5 -40 19 -82 17 -52 37 -88 59 -112 l34 -35 110 110
c74 74 106 112 97 117 -14 9 -311 11 -319 2z"/>
<path d="M520 4792 c0 -4 50 -57 110 -117 l110 -110 110 110 c61 60 110 113
110 117 0 5 -99 8 -220 8 -121 0 -220 -3 -220 -8z"/>
<path d="M1050 4792 c0 -4 50 -57 110 -117 l110 -110 110 110 c74 74 106 112
97 117 -16 10 -427 10 -427 0z"/>
<path d="M1580 4794 c0 -10 183 -205 203 -216 17 -9 35 5 128 98 60 60 109
112 109 116 0 5 -99 8 -220 8 -121 0 -220 -3 -220 -6z"/>
<path d="M2126 4793 c-28 -5 -27 -7 80 -114 60 -60 114 -109 121 -109 21 0
213 214 200 222 -12 8 -349 8 -401 1z"/>
<path d="M2647 4792 c-14 -6 3 -27 92 -116 60 -60 113 -107 117 -105 5 2 55
52 112 110 79 82 99 108 87 113 -22 8 -386 6 -408 -2z"/>
<path d="M3160 4792 c0 -4 50 -57 110 -117 l110 -110 110 110 c61 60 110 113
110 117 0 5 -99 8 -220 8 -121 0 -220 -3 -220 -8z"/>
<path d="M3707 4792 c-14 -6 3 -28 93 -117 l110 -110 110 110 c61 60 110 113
110 117 0 10 -398 9 -423 0z"/>
<path d="M355 4664 l-109 -114 228 0 228 0 -68 76 c-70 78 -152 155 -163 153
-3 -1 -55 -53 -116 -115z"/>
<path d="M887 4668 l-106 -113 216 -3 c119 -1 218 0 221 3 6 6 -208 225 -219
225 -4 0 -55 -51 -112 -112z"/>
<path d="M1417 4672 c-59 -59 -107 -111 -107 -115 0 -4 99 -7 220 -7 121 0
220 3 220 8 0 8 -212 222 -220 222 -3 0 -54 -48 -113 -108z"/>
<path d="M1944 4668 l-109 -113 219 -3 c120 -1 221 0 224 3 6 5 -208 225 -218
225 -4 0 -56 -51 -116 -112z"/>
<path d="M2475 4670 c-60 -60 -107 -112 -103 -115 3 -3 104 -4 224 -3 l219 3
-109 113 c-60 61 -111 112 -115 112 -3 0 -56 -49 -116 -110z"/>
<path d="M3000 4665 l-115 -115 230 0 229 0 -29 33 c-55 61 -190 197 -195 197
-3 0 -57 -52 -120 -115z"/>
<path d="M3630 4770 c-9 -4 -60 -56 -114 -114 l-98 -106 227 0 228 0 -109 113
c-59 61 -110 113 -113 114 -4 1 -13 -2 -21 -7z"/>
<path d="M4056 4668 l-106 -113 89 -3 c50 -1 134 -1 187 0 l97 3 -28 33 c-15
18 -46 67 -69 109 -22 42 -46 78 -52 80 -6 2 -59 -47 -118 -109z"/>
<path d="M150 4560 c0 -5 5 -10 10 -10 6 0 10 5 10 10 0 6 -4 10 -10 10 -5 0
-10 -4 -10 -10z"/>
<path d="M150 4514 c0 -8 5 -12 10 -9 6 3 10 10 10 16 0 5 -4 9 -10 9 -5 0
-10 -7 -10 -16z"/>
<path d="M357 4415 c59 -63 113 -115 118 -115 9 0 106 95 195 193 l34 37 -228
0 -227 0 108 -115z"/>
<path d="M790 4521 c0 -10 199 -221 209 -221 9 0 215 207 219 220 2 6 -74 10
-212 10 -119 0 -216 -4 -216 -9z"/>
<path d="M1310 4522 c0 -4 50 -57 110 -117 l110 -110 110 110 c61 60 110 113
110 117 0 5 -99 8 -220 8 -121 0 -220 -3 -220 -8z"/>
<path d="M1840 4522 c0 -4 50 -57 110 -117 l110 -110 110 110 c61 60 110 113
110 117 0 5 -99 8 -220 8 -121 0 -220 -3 -220 -8z"/>
<path d="M2370 4522 c0 -4 49 -57 110 -117 l110 -110 91 90 c50 50 99 102 110
118 l20 27 -220 0 c-122 0 -221 -3 -221 -8z"/>
<path d="M2900 4522 c0 -4 50 -57 110 -117 l110 -110 110 110 c61 60 110 113
110 117 0 5 -99 8 -220 8 -121 0 -220 -3 -220 -8z"/>
<path d="M3455 4488 c107 -116 181 -188 191 -188 11 0 214 212 214 224 0 3
-100 6 -222 6 l-222 0 39 -42z"/>
<path d="M3988 4483 c22 -27 72 -79 111 -118 l71 -70 100 100 c94 93 98 100
83 117 -14 16 -36 18 -210 18 l-195 0 40 -47z"/>
<path d="M172 4478 c-29 -31 -31 -39 -34 -113 l-3 -80 148 -3 c81 -1 147 1
147 5 0 9 -212 223 -221 223 -3 0 -19 -15 -37 -32z"/>
<path d="M627 4402 c-59 -59 -107 -111 -107 -115 0 -4 99 -7 220 -7 121 0 220
3 220 8 0 8 -212 222 -220 222 -3 0 -54 -48 -113 -108z"/>
<path d="M1157 4402 c-59 -59 -107 -111 -107 -115 0 -4 97 -7 215 -7 155 0
215 3 215 11 0 12 -199 219 -210 219 -3 0 -54 -48 -113 -108z"/>
<path d="M1688 4404 c-57 -58 -104 -109 -106 -115 -2 -5 81 -9 212 -9 124 0
216 4 216 9 0 12 -199 221 -211 221 -4 0 -54 -47 -111 -106z"/>
<path d="M2206 4398 l-106 -113 216 -3 c119 -1 219 0 222 3 6 6 -208 225 -220
225 -3 0 -54 -51 -112 -112z"/>
<path d="M2742 4406 c-56 -58 -102 -110 -102 -115 0 -12 412 -16 424 -4 6 7
-202 223 -215 223 -3 0 -52 -47 -107 -104z"/>
<path d="M3267 4402 c-59 -59 -107 -111 -107 -115 0 -4 99 -7 220 -7 121 0
220 3 220 8 0 8 -212 222 -220 222 -3 0 -54 -48 -113 -108z"/>
<path d="M3797 4402 c-59 -59 -107 -111 -107 -115 0 -4 99 -7 220 -7 121 1
220 5 220 8 0 8 -213 222 -220 222 -3 0 -54 -48 -113 -108z"/>
<path d="M4303 4381 c-46 -48 -83 -90 -83 -94 0 -9 282 -9 304 -1 12 5 -1 26
-60 95 -41 49 -76 88 -77 88 -1 -1 -39 -41 -84 -88z"/>
<path d="M126 4244 c-3 -9 -6 -41 -6 -73 0 -54 2 -59 45 -101 l45 -44 110 109
c61 60 110 113 110 117 0 5 -67 8 -149 8 -127 0 -150 -2 -155 -16z"/>
<path d="M520 4252 c0 -4 50 -57 110 -117 l110 -110 110 110 c61 60 110 113
110 117 0 5 -99 8 -220 8 -121 0 -220 -3 -220 -8z"/>
<path d="M1050 4252 c0 -4 50 -57 110 -117 l110 -110 110 110 c61 60 110 113
110 117 0 5 -99 8 -220 8 -121 0 -220 -3 -220 -8z"/>
<path d="M1682 4143 l117 -117 32 29 c17 17 67 69 111 118 l80 87 -228 0 -229
0 117 -117z"/>
<path d="M2210 4145 l115 -115 112 112 c62 62 113 114 113 115 0 2 -102 3
-227 3 l-228 0 115 -115z"/>
<path d="M2688 4193 c33 -38 83 -90 111 -118 l51 -49 110 109 c61 60 110 113
110 117 0 5 -99 8 -221 8 l-221 0 60 -67z"/>
<path d="M3179 4233 c11 -16 60 -68 110 -118 l91 -90 110 110 c61 60 110 113
110 117 0 5 -99 8 -221 8 l-220 0 20 -27z"/>
<path d="M3690 4252 c0 -4 50 -57 110 -117 l110 -110 110 110 c61 60 110 113
110 117 0 5 -99 8 -220 8 -121 0 -220 -3 -220 -8z"/>
<path d="M4220 4252 c0 -4 49 -57 110 -117 l110 -109 46 44 c25 25 64 67 86
93 l41 48 -23 24 c-23 25 -26 25 -197 25 -95 0 -173 -3 -173 -8z"/>
<path d="M350 4121 c-68 -72 -129 -131 -135 -131 -6 0 -29 18 -50 40 -41 42
-55 49 -55 27 0 -24 106 -107 138 -107 16 0 152 -50 302 -110 l274 -111 272
111 c150 60 283 110 297 110 13 0 147 -50 297 -110 l272 -111 273 111 c151 60
284 110 298 110 13 0 146 -50 296 -110 l272 -111 274 111 c151 60 285 110 298
110 13 0 145 -50 295 -110 l271 -110 276 110 c151 60 286 110 298 110 13 0 79
-23 147 -50 88 -35 126 -47 131 -38 4 6 19 54 34 106 26 91 26 96 9 109 -32
23 -58 14 -109 -37 -27 -27 -54 -50 -60 -50 -6 0 -37 27 -70 61 -59 60 -61 61
-106 55 -49 -5 -68 3 -122 53 l-27 25 -98 -97 c-54 -53 -102 -97 -109 -97 -6
0 -65 56 -131 125 -65 69 -123 125 -128 125 -5 0 -65 -56 -134 -125 -69 -69
-129 -125 -134 -125 -5 0 -63 56 -129 125 -65 69 -124 125 -131 125 -7 0 -68
-56 -135 -125 -67 -69 -125 -125 -129 -125 -4 0 -63 56 -132 125 -69 69 -130
125 -136 125 -7 0 -65 -56 -129 -125 -65 -69 -122 -125 -129 -125 -6 0 -68 57
-138 127 l-128 128 -128 -128 c-70 -70 -132 -127 -137 -127 -5 0 -67 57 -137
127 l-128 128 -128 -128 c-70 -70 -132 -127 -138 -127 -7 0 -66 56 -132 125
-67 69 -125 125 -129 125 -5 0 -64 -56 -133 -125 -69 -69 -130 -125 -136 -125
-6 0 -63 56 -128 125 -65 69 -123 125 -130 125 -6 0 -68 -56 -136 -125 -68
-69 -126 -125 -129 -125 -3 0 -65 59 -137 131 l-131 131 -123 -131z"/>
<path d="M4912 4078 c43 -55 55 -58 90 -19 29 32 30 35 12 42 -10 4 -43 8 -73
8 l-54 1 25 -32z"/>
<path d="M250 3925 c0 -2 72 -67 161 -146 159 -140 162 -142 280 -190 65 -27
125 -49 132 -49 8 0 136 50 285 110 149 61 277 110 285 110 8 0 136 -49 285
-110 149 -60 278 -110 285 -110 8 0 136 50 285 110 149 61 277 110 285 110 7
0 136 -49 285 -110 149 -60 276 -110 283 -110 7 0 135 50 285 110 150 61 279
110 286 110 8 0 131 -47 273 -105 143 -58 270 -108 282 -111 15 -4 114 31 297
105 151 61 281 111 289 111 7 0 58 -18 112 -40 54 -22 100 -39 101 -37 2 2 15
33 29 70 l25 67 -22 9 c-13 5 -73 29 -135 54 l-112 45 -284 -115 -284 -114
-285 114 -286 114 -284 -114 -283 -114 -278 110 c-152 61 -285 111 -295 111
-9 0 -141 -50 -293 -111 l-277 -110 -274 110 c-151 61 -283 111 -295 111 -12
0 -145 -50 -296 -111 l-274 -110 -286 114 c-158 64 -287 114 -287 112z"/>
<path d="M1105 3619 c-148 -60 -275 -109 -282 -109 -7 0 -47 14 -89 30 -42 17
-78 29 -79 28 -3 -3 171 -159 191 -171 8 -4 121 36 279 99 l266 106 57 -21
c48 -18 65 -20 109 -12 79 15 94 9 287 -126 49 -35 98 -63 110 -63 11 0 146
50 300 112 l278 111 279 -111 c153 -62 284 -112 291 -112 7 0 138 50 291 112
l279 111 278 -111 c153 -62 285 -112 292 -112 7 0 138 50 290 111 l278 112 81
-32 c45 -17 83 -30 84 -29 7 10 35 91 35 101 0 6 -45 30 -100 51 l-101 39
-277 -111 c-152 -62 -283 -112 -291 -112 -7 0 -139 50 -291 112 l-278 111
-281 -112 c-172 -69 -289 -111 -301 -108 -11 3 -141 54 -289 113 l-269 107
-278 -112 c-154 -61 -285 -111 -292 -111 -7 0 -136 50 -286 110 -150 61 -279
110 -287 109 -8 0 -135 -50 -284 -110z"/>
<path d="M1213 3502 c-89 -37 -160 -68 -158 -70 1 -2 68 17 146 42 79 25 166
51 193 57 44 11 47 13 31 26 -11 7 -26 13 -34 12 -9 -1 -89 -31 -178 -67z"/>
<path d="M2253 3461 c-145 -59 -265 -110 -268 -112 -3 -3 9 -18 25 -34 l30
-29 240 97 c132 53 246 97 253 97 7 0 130 -47 272 -105 143 -58 270 -108 282
-111 16 -4 112 30 297 105 151 61 280 111 287 111 7 0 136 -49 285 -110 150
-60 278 -110 286 -110 7 0 138 50 290 112 l278 112 47 -18 c80 -30 79 -30 92
4 6 18 9 35 6 39 -2 4 -36 20 -74 36 l-70 28 -276 -112 c-151 -61 -283 -111
-293 -111 -9 0 -142 50 -294 111 l-277 112 -275 -111 c-151 -62 -284 -112
-294 -112 -10 0 -141 50 -290 110 -149 61 -277 110 -284 109 -7 0 -131 -49
-275 -108z"/>
<path d="M2275 3351 l-240 -97 2 -140 c3 -150 19 -349 31 -371 6 -9 31 10 87
67 44 44 84 80 90 80 6 0 53 -43 105 -95 l95 -95 95 95 c52 52 100 95 105 95
6 1 51 -43 102 -97 l92 -98 100 100 101 100 100 -100 100 -100 100 100 100
100 100 -100 100 -100 91 98 c50 53 96 97 103 97 6 0 54 -43 106 -95 l95 -95
95 95 c52 52 100 95 106 95 5 0 32 -22 59 -50 52 -53 65 -60 65 -34 0 25 97
120 239 234 l130 105 -137 3 c-75 1 -140 6 -145 11 -4 4 72 41 170 80 176 72
201 77 254 56 13 -5 21 5 34 45 9 28 15 56 12 63 -3 7 -29 21 -58 31 l-54 18
-274 -111 c-151 -61 -282 -111 -290 -111 -9 0 -140 50 -292 112 l-276 111
-279 -111 c-154 -62 -286 -112 -294 -112 -8 0 -137 50 -286 110 -150 61 -278
110 -286 109 -7 0 -121 -45 -253 -98z m450 -110 c93 -38 171 -74 173 -80 5
-14 -724 -16 -732 -2 -7 11 329 149 364 150 14 0 101 -31 195 -68z m1140 0
c93 -38 171 -74 173 -80 5 -14 -724 -16 -732 -2 -7 11 329 149 364 150 14 0
101 -31 195 -68z"/>
<path d="M2485 3269 c-11 -5 -63 -27 -115 -48 l-95 -40 260 0 260 0 -120 49
c-121 49 -154 56 -190 39z"/>
<path d="M3532 3232 l-112 -47 125 -3 c69 -1 182 -1 251 0 l127 3 -116 48
c-64 26 -127 47 -139 46 -13 0 -74 -22 -136 -47z"/>
<path d="M4690 3239 c-52 -21 -104 -43 -115 -48 -14 -7 14 -10 90 -10 l110 0
45 40 c35 32 41 42 30 50 -26 16 -62 8 -160 -32z"/>
<path d="M2165 2770 l-80 -80 160 0 160 0 -80 80 c-44 44 -80 80 -80 80 0 0
-36 -36 -80 -80z"/>
<path d="M2589 2803 c-24 -27 -57 -63 -74 -80 l-29 -33 159 0 160 0 -80 80
c-44 44 -82 80 -85 80 -3 0 -26 -21 -51 -47z"/>
<path d="M2955 2770 l-80 -80 165 0 165 0 -80 80 c-44 44 -82 80 -85 80 -3 0
-41 -36 -85 -80z"/>
<path d="M3355 2770 l-80 -80 165 0 165 0 -80 80 c-44 44 -82 80 -85 80 -3 0
-41 -36 -85 -80z"/>
<path d="M3755 2770 l-80 -80 158 0 158 0 -72 80 c-40 44 -75 80 -79 80 -3 0
-41 -36 -85 -80z"/>
<path d="M4155 2770 l-80 -80 132 0 c126 0 132 1 138 21 6 17 -5 33 -52 80
l-58 59 -80 -80z"/>
<path d="M2106 2648 c17 -29 130 -148 140 -148 5 0 43 36 83 80 l72 80 -151 0
c-118 0 -150 -3 -144 -12z"/>
<path d="M2490 2652 c0 -4 34 -41 75 -82 l75 -75 83 83 82 82 -158 0 c-86 0
-157 -3 -157 -8z"/>
<path d="M2890 2652 c0 -4 34 -41 75 -82 l75 -74 75 74 c41 41 75 78 75 82 0
5 -67 8 -150 8 -82 0 -150 -3 -150 -8z"/>
<path d="M3357 2578 l83 -83 75 75 c41 41 75 78 75 82 0 5 -71 8 -157 8 l-158
0 82 -82z"/>
<path d="M3757 2578 l83 -83 56 55 c30 30 65 67 75 83 l20 27 -158 0 -158 0
82 -82z"/>
<path d="M4139 2591 c93 -105 84 -103 147 -40 40 39 54 61 54 81 l0 28 -131 0
-131 0 61 -69z"/>
<path d="M2367 2572 c-42 -42 -77 -81 -77 -85 0 -4 70 -7 155 -7 85 0 155 3
155 8 0 4 -35 42 -78 85 l-77 77 -78 -78z"/>
<path d="M2767 2572 c-42 -42 -77 -81 -77 -85 0 -9 269 -8 293 1 14 6 4 21
-61 85 l-77 77 -78 -78z"/>
<path d="M3161 2573 c-39 -42 -71 -80 -71 -85 0 -4 68 -8 151 -8 89 0 149 4
147 9 -6 17 -119 141 -138 151 -16 8 -29 -2 -89 -67z"/>
<path d="M3557 2572 c-43 -43 -74 -81 -71 -85 10 -10 276 -9 291 1 9 5 -12 32
-65 85 l-77 77 -78 -78z"/>
<path d="M3957 2572 c-42 -42 -77 -81 -77 -85 0 -4 70 -7 155 -7 85 0 155 3
155 8 0 4 -35 42 -78 85 l-77 77 -78 -78z"/>
<path d="M4302 2517 c-28 -30 -28 -37 3 -37 21 0 25 5 25 30 0 36 -1 36 -28 7z"/>
<path d="M2180 2502 c6 -13 14 -21 18 -18 3 4 -2 14 -12 24 -18 16 -18 16 -6
-6z"/>
<path d="M2290 2452 c0 -11 144 -152 156 -152 9 0 95 86 138 138 l19 22 -156
0 c-87 0 -157 -3 -157 -8z"/>
<path d="M2755 2380 c44 -44 85 -79 90 -78 6 2 43 38 84 81 l74 77 -164 0
-164 0 80 -80z"/>
<path d="M3158 2378 l82 -83 82 83 83 82 -165 0 -165 0 83 -82z"/>
<path d="M3515 2418 c22 -24 58 -62 80 -86 l39 -42 78 77 c43 43 78 81 78 85
0 5 -71 8 -157 8 l-157 0 39 -42z"/>
<path d="M3891 2443 c29 -39 134 -143 145 -143 11 0 154 143 154 154 0 3 -70
6 -156 6 -147 0 -156 -1 -143 -17z"/>
<path d="M4280 2452 c0 -5 11 -19 25 -32 l25 -23 0 31 c0 27 -4 32 -25 32 -14
0 -25 -4 -25 -8z"/>
<path d="M2231 2436 c-10 -12 -5 -28 24 -85 l35 -71 55 0 c30 0 55 3 55 8 0 4
-35 42 -78 85 -67 66 -80 76 -91 63z"/>
<path d="M3757 2372 c-42 -42 -77 -81 -77 -85 0 -4 70 -7 155 -7 85 0 155 3
155 8 0 4 -35 42 -78 85 l-77 77 -78 -78z"/>
<path d="M2560 2365 c-41 -41 -71 -77 -68 -80 3 -3 73 -4 156 -3 l151 3 -71
78 c-38 42 -75 77 -82 77 -6 0 -45 -34 -86 -75z"/>
<path d="M2955 2360 l-80 -80 165 0 165 0 -80 80 c-44 44 -82 80 -85 80 -3 0
-41 -36 -85 -80z"/>
<path d="M3355 2360 l-80 -80 165 0 165 0 -80 80 c-44 44 -82 80 -85 80 -3 0
-41 -36 -85 -80z"/>
<path d="M4152 2366 c-40 -41 -72 -77 -72 -80 0 -3 56 -6 125 -6 l125 0 0 37
c0 30 -8 45 -42 80 -23 24 -47 43 -53 43 -7 0 -44 -33 -83 -74z"/>
<path d="M2310 2247 c0 -7 9 -38 20 -70 14 -38 20 -82 20 -136 l0 -79 113 -5
c161 -8 1864 -3 1872 5 4 4 4 72 0 152 l-7 146 -1009 0 c-815 0 -1009 -2
-1009 -13z"/>
<path d="M5071 1976 c-12 -14 -8 -16 35 -16 50 0 52 13 3 25 -17 4 -30 1 -38
-9z"/>
<path d="M2453 1843 l87 -88 87 88 88 87 -175 0 -175 0 88 -87z"/>
<path d="M2875 1840 l90 -90 82 82 c46 46 83 86 83 90 0 5 -78 8 -172 8 l-173
0 90 -90z"/>
<path d="M3258 1883 c22 -27 60 -67 84 -90 l44 -43 89 90 90 90 -174 0 -173 0
40 -47z"/>
<path d="M3723 1843 l87 -88 87 88 88 87 -175 0 -175 0 88 -87z"/>
<path d="M4145 1840 l89 -90 53 52 c45 45 53 58 53 90 l0 38 -142 0 -143 0 90
-90z"/>
<path d="M5003 1900 c-13 -15 -23 -32 -23 -37 0 -5 23 -31 50 -58 l50 -49 25
24 c18 18 27 42 33 88 l9 62 -61 -1 c-55 0 -63 -3 -83 -29z"/>
<path d="M2648 1813 l-107 -107 -98 97 c-53 53 -98 97 -100 97 -2 0 -3 -37 -3
-83 l0 -82 100 -100 100 -100 103 103 c56 56 107 102 113 102 7 0 55 -46 109
-101 l97 -102 102 102 c56 55 106 101 111 101 5 0 56 -46 113 -102 l102 -103
96 103 c53 56 101 102 107 102 6 0 58 -46 114 -102 l103 -103 103 103 c56 56
108 102 114 102 6 0 55 -46 108 -102 l96 -103 25 30 c31 39 85 168 91 220 l5
40 -54 -52 c-29 -29 -58 -53 -64 -53 -6 0 -56 45 -110 100 l-98 100 -101 -100
c-55 -55 -107 -100 -115 -100 -8 0 -60 45 -116 101 l-101 100 -95 -100 c-53
-56 -102 -101 -109 -101 -8 0 -59 45 -114 100 l-100 100 -105 -105 -105 -105
-105 105 -105 105 -107 -107z"/>
<path d="M4935 1816 c-6 -8 -21 -28 -33 -45 l-24 -32 98 -100 c54 -54 103 -98
109 -96 9 3 32 126 34 182 1 15 -2 16 -11 7 -22 -22 -43 -13 -98 43 -30 30
-57 55 -60 55 -3 0 -10 -6 -15 -14z"/>
<path d="M2662 1617 c-45 -45 -82 -86 -82 -90 0 -4 77 -7 170 -7 94 0 170 3
170 8 0 8 -162 172 -170 172 -3 0 -42 -37 -88 -83z"/>
<path d="M3088 1616 l-77 -83 46 -7 c58 -8 185 -7 241 2 l42 7 -76 83 c-41 45
-81 82 -88 82 -6 0 -46 -38 -88 -84z"/>
<path d="M3511 1616 c-77 -77 -81 -84 -59 -89 33 -10 318 -8 318 1 0 8 -162
172 -170 172 -3 0 -43 -38 -89 -84z"/>
<path d="M3932 1617 c-45 -45 -82 -86 -82 -90 0 -4 77 -7 170 -7 94 0 170 3
170 8 0 8 -162 172 -170 172 -3 0 -42 -37 -88 -83z"/>
<path d="M4823 1658 c-43 -45 -87 -121 -76 -132 9 -9 293 -7 293 2 0 8 -162
172 -171 172 -2 0 -23 -19 -46 -42z"/>
<path d="M2330 1611 c0 -88 2 -91 85 -91 94 0 95 5 9 91 -43 44 -82 79 -86 79
-5 0 -8 -35 -8 -79z"/>
<path d="M2327 1493 c-9 -9 -9 -225 1 -239 11 -15 148 -124 157 -124 4 0 50
34 101 75 51 41 99 75 105 75 7 0 54 -34 106 -76 51 -42 99 -74 106 -71 6 2
52 37 101 76 49 39 93 71 99 71 5 0 52 -34 104 -76 52 -42 100 -74 106 -71 7
3 52 37 101 76 49 39 94 71 100 71 7 0 53 -34 103 -75 51 -41 96 -75 102 -75
5 0 51 34 102 75 50 41 97 75 103 75 6 0 31 -16 55 -35 24 -19 47 -35 50 -35
3 0 16 21 28 48 12 26 52 87 88 136 36 50 65 93 65 98 0 10 -1874 11 -1883 1z"/>
<path d="M4727 1493 c-16 -27 -128 -394 -129 -420 0 -48 32 -106 66 -118 25
-9 31 -6 55 23 14 18 47 56 72 86 126 146 281 348 289 378 18 61 25 58 -169
58 -99 0 -182 -3 -184 -7z"/>
<path d="M3003 1170 c-54 -44 -101 -80 -105 -80 -3 0 -49 34 -101 75 -53 41
-100 75 -107 75 -6 0 -53 -34 -104 -75 -51 -41 -97 -75 -101 -75 -4 0 -39 25
-77 56 -38 31 -71 54 -74 52 -2 -3 3 -24 12 -49 13 -39 67 -94 130 -131 7 -5
46 20 100 63 49 39 96 75 105 79 11 6 41 -12 113 -71 54 -43 100 -79 102 -79
2 0 50 36 105 80 66 53 105 78 113 72 6 -5 47 -37 91 -72 44 -35 85 -68 92
-72 8 -6 45 18 113 72 66 52 106 78 114 72 6 -5 47 -37 91 -72 44 -35 86 -68
92 -73 9 -7 41 13 108 67 52 42 103 76 113 76 10 0 27 -9 37 -20 25 -27 42
-25 49 6 4 15 6 27 4 28 -2 1 -23 19 -48 39 l-46 36 -99 -79 c-55 -44 -103
-80 -107 -80 -3 0 -32 21 -65 47 -32 26 -76 62 -98 79 l-41 33 -99 -79 c-55
-44 -103 -80 -107 -80 -4 0 -52 36 -107 80 l-100 79 -98 -79z"/>
<path d="M2593 1055 c-51 -41 -99 -75 -108 -75 -9 0 -37 17 -63 38 -25 20 -43
30 -41 22 3 -8 34 -108 69 -222 36 -115 67 -208 70 -208 4 0 39 75 79 168 40
92 79 173 85 180 10 10 31 -30 108 -203 52 -119 99 -217 104 -218 4 -1 49 92
100 206 50 114 96 213 102 219 8 8 15 1 26 -25 60 -145 179 -407 185 -407 3 0
33 62 65 138 104 240 136 306 145 296 5 -5 46 -94 91 -199 110 -254 97 -234
126 -192 13 20 56 109 94 198 94 216 89 207 106 184 17 -23 17 -24 38 54 16
61 16 64 -1 83 -40 45 -47 43 -147 -37 -51 -41 -100 -75 -107 -75 -8 0 -56 34
-108 75 -51 41 -95 75 -98 75 -2 0 -46 -34 -97 -75 -51 -41 -100 -75 -109 -75
-8 0 -53 30 -99 67 -45 36 -89 71 -95 76 -9 7 -40 -13 -105 -65 -51 -41 -98
-77 -104 -80 -5 -4 -55 29 -110 73 -54 43 -101 79 -104 79 -3 0 -46 -34 -97
-75z"/>
<path d="M2608 726 l-76 -175 22 -70 c11 -39 23 -71 26 -71 3 0 25 48 50 106
24 58 50 110 56 115 8 6 40 -57 110 -215 54 -124 100 -223 102 -222 2 2 45
100 97 217 52 119 99 214 107 214 7 0 54 -95 106 -212 52 -117 97 -213 101
-213 3 0 19 31 35 68 102 240 160 362 170 362 6 0 32 -47 56 -105 25 -58 48
-105 51 -105 3 0 20 20 38 44 l31 45 -83 191 c-47 105 -88 192 -93 193 -5 1
-49 -92 -100 -206 -50 -114 -96 -213 -101 -218 -8 -8 -17 2 -30 32 -11 24 -55
124 -98 222 -43 97 -81 177 -84 177 -3 0 -33 -62 -65 -138 -104 -240 -136
-306 -145 -296 -5 5 -51 105 -102 222 -51 116 -95 212 -98 212 -4 0 -41 -78
-83 -174z"/>
<path d="M3890 834 c-17 -37 -29 -69 -26 -71 4 -4 55 78 68 109 4 10 3 20 -3
23 -5 4 -23 -24 -39 -61z"/>
<path d="M2651 493 c-19 -43 -39 -91 -46 -108 -11 -27 -7 -47 39 -195 58 -186
61 -190 156 -190 153 0 471 61 547 105 41 25 133 123 212 228 l41 54 -40 89
c-22 49 -43 89 -47 89 -4 0 -48 -94 -99 -208 -50 -114 -96 -213 -101 -218 -8
-8 -17 3 -33 37 -12 27 -55 127 -97 222 -42 94 -78 172 -82 172 -3 0 -33 -62
-65 -138 -104 -240 -136 -306 -145 -296 -5 5 -51 105 -102 222 -51 116 -95
212 -99 212 -3 0 -21 -35 -39 -77z"/>
</g>
</svg>
